<svg width="1440" height="726" viewBox="0 0 1440 726" fill="none" xmlns="http://www.w3.org/2000/svg">
<g clip-path="url(#clip0_39_4)">
<rect width="1440" height="726" fill="#101010"/>
<path d="M116.982 568.404C116.943 568.632 116.827 569.845 116.712 571.096C116.288 575.935 115.311 580.522 114.295 582.468C112.881 585.135 110.555 586.979 107.547 587.788C105.992 588.205 102.843 588.711 101.262 588.812C100.529 588.85 99.9633 588.913 100.002 588.951C100.028 588.989 101.094 589.14 102.367 589.304C105.131 589.646 107.534 590.126 108.691 590.568C111.737 591.693 114.141 594.308 115.092 597.505C115.786 599.893 116.442 603.684 116.725 606.982C116.93 609.446 117.11 610.659 117.123 609.636C117.149 606.515 118.228 599.717 119.115 597.063C120.131 594.005 122.457 591.617 125.542 590.492C126.879 590.012 132.136 589.102 133.602 589.102C133.82 589.102 134 589.052 134 589.001C134 588.938 133.422 588.85 132.727 588.799C131.134 588.698 128.036 588.192 126.429 587.763C123.28 586.929 120.761 584.793 119.45 581.837C119.051 580.952 118.293 577.957 117.997 576.15C117.701 574.343 117.676 574.166 117.611 573.813C117.509 573.257 117.162 569.617 117.136 568.783C117.123 568.354 117.097 568 117.084 568C117.059 568 117.02 568.19 116.982 568.404Z" fill="#202020"/>
<path d="M133.982 453.404C133.943 453.632 133.827 454.845 133.712 456.096C133.288 460.935 132.311 465.522 131.295 467.468C129.881 470.135 127.555 471.979 124.547 472.788C122.992 473.205 119.843 473.711 118.262 473.812C117.529 473.85 116.963 473.913 117.002 473.951C117.028 473.989 118.094 474.14 119.367 474.304C122.131 474.646 124.534 475.126 125.691 475.568C128.737 476.693 131.141 479.308 132.092 482.505C132.786 484.893 133.442 488.684 133.725 491.982C133.93 494.446 134.11 495.659 134.123 494.636C134.149 491.515 135.228 484.717 136.115 482.063C137.131 479.005 139.457 476.617 142.542 475.492C143.879 475.012 149.136 474.102 150.602 474.102C150.82 474.102 151 474.052 151 474.001C151 473.938 150.422 473.85 149.727 473.799C148.134 473.698 145.036 473.192 143.429 472.763C140.28 471.929 137.761 469.793 136.45 466.837C136.051 465.952 135.293 462.957 134.997 461.15C134.701 459.343 134.676 459.166 134.611 458.813C134.509 458.257 134.162 454.617 134.136 453.783C134.123 453.354 134.097 453 134.084 453C134.059 453 134.02 453.19 133.982 453.404Z" fill="#202020"/>
<path d="M262.491 666.202C262.472 666.316 262.414 666.922 262.356 667.548C262.144 669.968 261.655 672.261 261.148 673.234C260.441 674.567 259.277 675.49 257.774 675.894C256.996 676.103 255.421 676.355 254.631 676.406C254.264 676.425 253.982 676.456 254.001 676.475C254.014 676.494 254.547 676.57 255.183 676.652C256.565 676.823 257.767 677.063 258.345 677.284C259.869 677.846 261.07 679.154 261.546 680.753C261.893 681.947 262.221 683.842 262.362 685.491C262.465 686.723 262.555 687.33 262.562 686.818C262.574 685.257 263.114 681.858 263.558 680.531C264.065 679.003 265.229 677.808 266.771 677.246C267.44 677.006 270.068 676.551 270.801 676.551C270.91 676.551 271 676.526 271 676.501C271 676.469 270.711 676.425 270.364 676.399C269.567 676.349 268.018 676.096 267.215 675.881C265.64 675.464 264.38 674.397 263.725 672.918C263.526 672.476 263.146 670.979 262.999 670.075C262.851 669.172 262.838 669.083 262.806 668.906C262.754 668.628 262.581 666.809 262.568 666.392C262.562 666.177 262.549 666 262.542 666C262.529 666 262.51 666.095 262.491 666.202Z" fill="#202020"/>
<path d="M207.491 613.202C207.472 613.316 207.414 613.922 207.356 614.548C207.144 616.968 206.655 619.261 206.148 620.234C205.441 621.567 204.277 622.49 202.774 622.894C201.996 623.103 200.421 623.355 199.631 623.406C199.264 623.425 198.982 623.456 199.001 623.475C199.014 623.494 199.547 623.57 200.183 623.652C201.565 623.823 202.767 624.063 203.345 624.284C204.869 624.846 206.07 626.154 206.546 627.753C206.893 628.947 207.221 630.842 207.362 632.491C207.465 633.723 207.555 634.33 207.562 633.818C207.574 632.257 208.114 628.858 208.558 627.531C209.065 626.003 210.229 624.808 211.771 624.246C212.44 624.006 215.068 623.551 215.801 623.551C215.91 623.551 216 623.526 216 623.501C216 623.469 215.711 623.425 215.364 623.399C214.567 623.349 213.018 623.096 212.215 622.881C210.64 622.464 209.38 621.397 208.725 619.918C208.526 619.476 208.146 617.979 207.999 617.075C207.851 616.172 207.838 616.083 207.806 615.906C207.754 615.628 207.581 613.809 207.568 613.392C207.562 613.177 207.549 613 207.542 613C207.529 613 207.51 613.095 207.491 613.202Z" fill="#202020"/>
<path d="M82.9816 266.404C82.9431 266.632 82.8274 267.845 82.7117 269.096C82.2875 273.935 81.3107 278.522 80.2952 280.468C78.8813 283.135 76.5548 284.979 73.547 285.788C71.9917 286.205 68.8425 286.711 67.2615 286.812C66.5289 286.85 65.9633 286.913 66.0019 286.951C66.0276 286.989 67.0944 287.14 68.3669 287.304C71.1305 287.646 73.5342 288.126 74.691 288.568C77.7373 289.693 80.141 292.308 81.0922 295.505C81.7863 297.893 82.4418 301.684 82.7246 304.982C82.9302 307.446 83.1102 308.659 83.123 307.636C83.1487 304.515 84.2285 297.717 85.1154 295.063C86.1308 292.005 88.4573 289.617 91.5422 288.492C92.879 288.012 98.1362 287.102 99.6015 287.102C99.82 287.102 100 287.052 100 287.001C100 286.938 99.4216 286.85 98.7275 286.799C97.1336 286.698 94.0359 286.192 92.4291 285.763C89.28 284.929 86.7606 282.793 85.4496 279.837C85.0511 278.952 84.2927 275.957 83.9971 274.15C83.7015 272.343 83.6758 272.166 83.6115 271.813C83.5087 271.257 83.1616 267.617 83.1359 266.783C83.123 266.354 83.0973 266 83.0845 266C83.0588 266 83.0202 266.19 82.9816 266.404Z" fill="#202020"/>
<path d="M158.491 412.202C158.472 412.316 158.414 412.922 158.356 413.548C158.144 415.968 157.655 418.261 157.148 419.234C156.441 420.567 155.277 421.49 153.774 421.894C152.996 422.103 151.421 422.355 150.631 422.406C150.264 422.425 149.982 422.456 150.001 422.475C150.014 422.494 150.547 422.57 151.183 422.652C152.565 422.823 153.767 423.063 154.345 423.284C155.869 423.846 157.07 425.154 157.546 426.753C157.893 427.947 158.221 429.842 158.362 431.491C158.465 432.723 158.555 433.33 158.562 432.818C158.574 431.257 159.114 427.858 159.558 426.531C160.065 425.003 161.229 423.808 162.771 423.246C163.44 423.006 166.068 422.551 166.801 422.551C166.91 422.551 167 422.526 167 422.501C167 422.469 166.711 422.425 166.364 422.399C165.567 422.349 164.018 422.096 163.215 421.881C161.64 421.464 160.38 420.397 159.725 418.918C159.526 418.476 159.146 416.979 158.999 416.075C158.851 415.172 158.838 415.083 158.806 414.906C158.754 414.628 158.581 412.809 158.568 412.392C158.562 412.177 158.549 412 158.542 412C158.529 412 158.51 412.095 158.491 412.202Z" fill="#202020"/>
<path d="M103.491 359.202C103.472 359.316 103.414 359.922 103.356 360.548C103.144 362.968 102.655 365.261 102.148 366.234C101.441 367.567 100.277 368.49 98.7735 368.894C97.9959 369.103 96.4213 369.355 95.6308 369.406C95.2644 369.425 94.9816 369.456 95.0009 369.475C95.0138 369.494 95.5472 369.57 96.1835 369.652C97.5653 369.823 98.7671 370.063 99.3455 370.284C100.869 370.846 102.07 372.154 102.546 373.753C102.893 374.947 103.221 376.842 103.362 378.491C103.465 379.723 103.555 380.33 103.562 379.818C103.574 378.257 104.114 374.858 104.558 373.531C105.065 372.003 106.229 370.808 107.771 370.246C108.44 370.006 111.068 369.551 111.801 369.551C111.91 369.551 112 369.526 112 369.501C112 369.469 111.711 369.425 111.364 369.399C110.567 369.349 109.018 369.096 108.215 368.881C106.64 368.464 105.38 367.397 104.725 365.918C104.526 365.476 104.146 363.979 103.999 363.075C103.851 362.172 103.838 362.083 103.806 361.906C103.754 361.628 103.581 359.809 103.568 359.392C103.562 359.177 103.549 359 103.542 359C103.529 359 103.51 359.095 103.491 359.202Z" fill="#202020"/>
<path d="M1235.98 568.404C1235.94 568.632 1235.83 569.845 1235.71 571.096C1235.29 575.935 1234.31 580.522 1233.3 582.468C1231.88 585.135 1229.55 586.979 1226.55 587.788C1224.99 588.205 1221.84 588.711 1220.26 588.812C1219.53 588.85 1218.96 588.913 1219 588.951C1219.03 588.989 1220.09 589.14 1221.37 589.304C1224.13 589.646 1226.53 590.126 1227.69 590.568C1230.74 591.693 1233.14 594.308 1234.09 597.505C1234.79 599.893 1235.44 603.684 1235.72 606.982C1235.93 609.446 1236.11 610.659 1236.12 609.636C1236.15 606.515 1237.23 599.717 1238.12 597.063C1239.13 594.005 1241.46 591.617 1244.54 590.492C1245.88 590.012 1251.14 589.102 1252.6 589.102C1252.82 589.102 1253 589.052 1253 589.001C1253 588.938 1252.42 588.85 1251.73 588.799C1250.13 588.698 1247.04 588.192 1245.43 587.763C1242.28 586.929 1239.76 584.793 1238.45 581.837C1238.05 580.952 1237.29 577.957 1237 576.15C1236.7 574.343 1236.68 574.166 1236.61 573.813C1236.51 573.257 1236.16 569.617 1236.14 568.783C1236.12 568.354 1236.1 568 1236.08 568C1236.06 568 1236.02 568.19 1235.98 568.404Z" fill="#202020"/>
<path d="M903.982 179.404C903.943 179.632 903.827 180.845 903.712 182.096C903.288 186.935 902.311 191.522 901.295 193.468C899.881 196.135 897.555 197.979 894.547 198.788C892.992 199.205 889.843 199.711 888.262 199.812C887.529 199.85 886.963 199.913 887.002 199.951C887.028 199.989 888.094 200.14 889.367 200.304C892.131 200.646 894.534 201.126 895.691 201.568C898.737 202.693 901.141 205.308 902.092 208.505C902.786 210.893 903.442 214.684 903.725 217.982C903.93 220.446 904.11 221.659 904.123 220.636C904.149 217.515 905.228 210.717 906.115 208.063C907.131 205.005 909.457 202.617 912.542 201.492C913.879 201.012 919.136 200.102 920.602 200.102C920.82 200.102 921 200.052 921 200.001C921 199.938 920.422 199.85 919.727 199.799C918.134 199.698 915.036 199.192 913.429 198.763C910.28 197.929 907.761 195.793 906.45 192.837C906.051 191.952 905.293 188.957 904.997 187.15C904.701 185.343 904.676 185.166 904.611 184.813C904.509 184.257 904.162 180.617 904.136 179.783C904.123 179.354 904.097 179 904.084 179C904.059 179 904.02 179.19 903.982 179.404Z" fill="#202020"/>
<path d="M1333.49 597.202C1333.47 597.316 1333.41 597.922 1333.36 598.548C1333.14 600.968 1332.66 603.261 1332.15 604.234C1331.44 605.567 1330.28 606.49 1328.77 606.894C1328 607.103 1326.42 607.355 1325.63 607.406C1325.26 607.425 1324.98 607.456 1325 607.475C1325.01 607.494 1325.55 607.57 1326.18 607.652C1327.57 607.823 1328.77 608.063 1329.35 608.284C1330.87 608.846 1332.07 610.154 1332.55 611.753C1332.89 612.947 1333.22 614.842 1333.36 616.491C1333.47 617.723 1333.56 618.33 1333.56 617.818C1333.57 616.257 1334.11 612.858 1334.56 611.531C1335.07 610.003 1336.23 608.808 1337.77 608.246C1338.44 608.006 1341.07 607.551 1341.8 607.551C1341.91 607.551 1342 607.526 1342 607.501C1342 607.469 1341.71 607.425 1341.36 607.399C1340.57 607.349 1339.02 607.096 1338.21 606.881C1336.64 606.464 1335.38 605.397 1334.72 603.918C1334.53 603.476 1334.15 601.979 1334 601.075C1333.85 600.172 1333.84 600.083 1333.81 599.906C1333.75 599.628 1333.58 597.809 1333.57 597.392C1333.56 597.177 1333.55 597 1333.54 597C1333.53 597 1333.51 597.095 1333.49 597.202Z" fill="#202020"/>
<path d="M993.982 587.404C993.943 587.632 993.827 588.845 993.712 590.096C993.288 594.935 992.311 599.522 991.295 601.468C989.881 604.135 987.555 605.979 984.547 606.788C982.992 607.205 979.843 607.711 978.262 607.812C977.529 607.85 976.963 607.913 977.002 607.951C977.028 607.989 978.094 608.14 979.367 608.304C982.131 608.646 984.534 609.126 985.691 609.568C988.737 610.693 991.141 613.308 992.092 616.505C992.786 618.893 993.442 622.684 993.725 625.982C993.93 628.446 994.11 629.659 994.123 628.636C994.149 625.515 995.228 618.717 996.115 616.063C997.131 613.005 999.457 610.617 1002.54 609.492C1003.88 609.012 1009.14 608.102 1010.6 608.102C1010.82 608.102 1011 608.052 1011 608.001C1011 607.938 1010.42 607.85 1009.73 607.799C1008.13 607.698 1005.04 607.192 1003.43 606.763C1000.28 605.929 997.761 603.793 996.45 600.837C996.051 599.952 995.293 596.957 994.997 595.15C994.701 593.343 994.676 593.166 994.611 592.813C994.509 592.257 994.162 588.617 994.136 587.783C994.123 587.354 994.097 587 994.084 587C994.059 587 994.02 587.19 993.982 587.404Z" fill="#202020"/>
<path d="M1334.98 363.404C1334.94 363.632 1334.83 364.845 1334.71 366.096C1334.29 370.935 1333.31 375.522 1332.3 377.468C1330.88 380.135 1328.55 381.979 1325.55 382.788C1323.99 383.205 1320.84 383.711 1319.26 383.812C1318.53 383.85 1317.96 383.913 1318 383.951C1318.03 383.989 1319.09 384.14 1320.37 384.304C1323.13 384.646 1325.53 385.126 1326.69 385.568C1329.74 386.693 1332.14 389.308 1333.09 392.505C1333.79 394.893 1334.44 398.684 1334.72 401.982C1334.93 404.446 1335.11 405.659 1335.12 404.636C1335.15 401.515 1336.23 394.717 1337.12 392.063C1338.13 389.005 1340.46 386.617 1343.54 385.492C1344.88 385.012 1350.14 384.102 1351.6 384.102C1351.82 384.102 1352 384.052 1352 384.001C1352 383.938 1351.42 383.85 1350.73 383.799C1349.13 383.698 1346.04 383.192 1344.43 382.763C1341.28 381.929 1338.76 379.793 1337.45 376.837C1337.05 375.952 1336.29 372.957 1336 371.15C1335.7 369.343 1335.68 369.166 1335.61 368.813C1335.51 368.257 1335.16 364.617 1335.14 363.783C1335.12 363.354 1335.1 363 1335.08 363C1335.06 363 1335.02 363.19 1334.98 363.404Z" fill="#202020"/>
<path d="M1304.49 269.202C1304.47 269.316 1304.41 269.922 1304.36 270.548C1304.14 272.968 1303.66 275.261 1303.15 276.234C1302.44 277.567 1301.28 278.49 1299.77 278.894C1299 279.103 1297.42 279.355 1296.63 279.406C1296.26 279.425 1295.98 279.456 1296 279.475C1296.01 279.494 1296.55 279.57 1297.18 279.652C1298.57 279.823 1299.77 280.063 1300.35 280.284C1301.87 280.846 1303.07 282.154 1303.55 283.753C1303.89 284.947 1304.22 286.842 1304.36 288.491C1304.47 289.723 1304.56 290.33 1304.56 289.818C1304.57 288.257 1305.11 284.858 1305.56 283.531C1306.07 282.003 1307.23 280.808 1308.77 280.246C1309.44 280.006 1312.07 279.551 1312.8 279.551C1312.91 279.551 1313 279.526 1313 279.501C1313 279.469 1312.71 279.425 1312.36 279.399C1311.57 279.349 1310.02 279.096 1309.21 278.881C1307.64 278.464 1306.38 277.397 1305.72 275.918C1305.53 275.476 1305.15 273.979 1305 273.075C1304.85 272.172 1304.84 272.083 1304.81 271.906C1304.75 271.628 1304.58 269.809 1304.57 269.392C1304.56 269.177 1304.55 269 1304.54 269C1304.53 269 1304.51 269.095 1304.49 269.202Z" fill="#202020"/>
<path d="M482.982 592.404C482.943 592.632 482.827 593.845 482.712 595.096C482.288 599.935 481.311 604.522 480.295 606.468C478.881 609.135 476.555 610.979 473.547 611.788C471.992 612.205 468.843 612.711 467.262 612.812C466.529 612.85 465.963 612.913 466.002 612.951C466.028 612.989 467.094 613.14 468.367 613.304C471.131 613.646 473.534 614.126 474.691 614.568C477.737 615.693 480.141 618.308 481.092 621.505C481.786 623.893 482.442 627.684 482.725 630.982C482.93 633.446 483.11 634.659 483.123 633.636C483.149 630.515 484.228 623.717 485.115 621.063C486.131 618.005 488.457 615.617 491.542 614.492C492.879 614.012 498.136 613.102 499.602 613.102C499.82 613.102 500 613.052 500 613.001C500 612.938 499.422 612.85 498.727 612.799C497.134 612.698 494.036 612.192 492.429 611.763C489.28 610.929 486.761 608.793 485.45 605.837C485.051 604.952 484.293 601.957 483.997 600.15C483.701 598.343 483.676 598.166 483.611 597.813C483.509 597.257 483.162 593.617 483.136 592.783C483.123 592.354 483.097 592 483.084 592C483.059 592 483.02 592.19 482.982 592.404Z" fill="#202020"/>
<path d="M262.982 179.404C262.943 179.632 262.827 180.845 262.712 182.096C262.288 186.935 261.311 191.522 260.295 193.468C258.881 196.135 256.555 197.979 253.547 198.788C251.992 199.205 248.843 199.711 247.262 199.812C246.529 199.85 245.963 199.913 246.002 199.951C246.028 199.989 247.094 200.14 248.367 200.304C251.131 200.646 253.534 201.126 254.691 201.568C257.737 202.693 260.141 205.308 261.092 208.505C261.786 210.893 262.442 214.684 262.725 217.982C262.93 220.446 263.11 221.659 263.123 220.636C263.149 217.515 264.228 210.717 265.115 208.063C266.131 205.005 268.457 202.617 271.542 201.492C272.879 201.012 278.136 200.102 279.602 200.102C279.82 200.102 280 200.052 280 200.001C280 199.938 279.422 199.85 278.727 199.799C277.134 199.698 274.036 199.192 272.429 198.763C269.28 197.929 266.761 195.793 265.45 192.837C265.051 191.952 264.293 188.957 263.997 187.15C263.701 185.343 263.676 185.166 263.611 184.813C263.509 184.257 263.162 180.617 263.136 179.783C263.123 179.354 263.097 179 263.084 179C263.059 179 263.02 179.19 262.982 179.404Z" fill="#202020"/>
<path d="M844.491 645.202C844.472 645.316 844.414 645.922 844.356 646.548C844.144 648.968 843.655 651.261 843.148 652.234C842.441 653.567 841.277 654.49 839.774 654.894C838.996 655.103 837.421 655.355 836.631 655.406C836.264 655.425 835.982 655.456 836.001 655.475C836.014 655.494 836.547 655.57 837.183 655.652C838.565 655.823 839.767 656.063 840.345 656.284C841.869 656.846 843.07 658.154 843.546 659.753C843.893 660.947 844.221 662.842 844.362 664.491C844.465 665.723 844.555 666.33 844.562 665.818C844.574 664.257 845.114 660.858 845.558 659.531C846.065 658.003 847.229 656.808 848.771 656.246C849.44 656.006 852.068 655.551 852.801 655.551C852.91 655.551 853 655.526 853 655.501C853 655.469 852.711 655.425 852.364 655.399C851.567 655.349 850.018 655.096 849.215 654.881C847.64 654.464 846.38 653.397 845.725 651.918C845.526 651.476 845.146 649.979 844.999 649.075C844.851 648.172 844.838 648.083 844.806 647.906C844.754 647.628 844.581 645.809 844.568 645.392C844.562 645.177 844.549 645 844.542 645C844.529 645 844.51 645.095 844.491 645.202Z" fill="#202020"/>
<path d="M745.491 587.202C745.472 587.316 745.414 587.922 745.356 588.548C745.144 590.968 744.655 593.261 744.148 594.234C743.441 595.567 742.277 596.49 740.774 596.894C739.996 597.103 738.421 597.355 737.631 597.406C737.264 597.425 736.982 597.456 737.001 597.475C737.014 597.494 737.547 597.57 738.183 597.652C739.565 597.823 740.767 598.063 741.345 598.284C742.869 598.846 744.07 600.154 744.546 601.753C744.893 602.947 745.221 604.842 745.362 606.491C745.465 607.723 745.555 608.33 745.562 607.818C745.574 606.257 746.114 602.858 746.558 601.531C747.065 600.003 748.229 598.808 749.771 598.246C750.44 598.006 753.068 597.551 753.801 597.551C753.91 597.551 754 597.526 754 597.501C754 597.469 753.711 597.425 753.364 597.399C752.567 597.349 751.018 597.096 750.215 596.881C748.64 596.464 747.38 595.397 746.725 593.918C746.526 593.476 746.146 591.979 745.999 591.075C745.851 590.172 745.838 590.083 745.806 589.906C745.754 589.628 745.581 587.809 745.568 587.392C745.562 587.177 745.549 587 745.542 587C745.529 587 745.51 587.095 745.491 587.202Z" fill="#202020"/>
<path d="M617.982 645.404C617.943 645.632 617.827 646.845 617.712 648.096C617.288 652.935 616.311 657.522 615.295 659.468C613.881 662.135 611.555 663.979 608.547 664.788C606.992 665.205 603.843 665.711 602.262 665.812C601.529 665.85 600.963 665.913 601.002 665.951C601.028 665.989 602.094 666.14 603.367 666.304C606.131 666.646 608.534 667.126 609.691 667.568C612.737 668.693 615.141 671.308 616.092 674.505C616.786 676.893 617.442 680.684 617.725 683.982C617.93 686.446 618.11 687.659 618.123 686.636C618.149 683.515 619.228 676.717 620.115 674.063C621.131 671.005 623.457 668.617 626.542 667.492C627.879 667.012 633.136 666.102 634.602 666.102C634.82 666.102 635 666.052 635 666.001C635 665.938 634.422 665.85 633.727 665.799C632.134 665.698 629.036 665.192 627.429 664.763C624.28 663.929 621.761 661.793 620.45 658.837C620.051 657.952 619.293 654.957 618.997 653.15C618.701 651.343 618.676 651.166 618.611 650.813C618.509 650.257 618.162 646.617 618.136 645.783C618.123 645.354 618.097 645 618.084 645C618.059 645 618.02 645.19 617.982 645.404Z" fill="#202020"/>
<path d="M482.491 168.202C482.472 168.316 482.414 168.922 482.356 169.548C482.144 171.968 481.655 174.261 481.148 175.234C480.441 176.567 479.277 177.49 477.774 177.894C476.996 178.103 475.421 178.355 474.631 178.406C474.264 178.425 473.982 178.456 474.001 178.475C474.014 178.494 474.547 178.57 475.183 178.652C476.565 178.823 477.767 179.063 478.345 179.284C479.869 179.846 481.07 181.154 481.546 182.753C481.893 183.947 482.221 185.842 482.362 187.491C482.465 188.723 482.555 189.33 482.562 188.818C482.574 187.257 483.114 183.858 483.558 182.531C484.065 181.003 485.229 179.808 486.771 179.246C487.44 179.006 490.068 178.551 490.801 178.551C490.91 178.551 491 178.526 491 178.501C491 178.469 490.711 178.425 490.364 178.399C489.567 178.349 488.018 178.096 487.215 177.881C485.64 177.464 484.38 176.397 483.725 174.918C483.526 174.476 483.146 172.979 482.999 172.075C482.851 171.172 482.838 171.083 482.806 170.906C482.754 170.628 482.581 168.809 482.568 168.392C482.562 168.177 482.549 168 482.542 168C482.529 168 482.51 168.095 482.491 168.202Z" fill="#202020"/>
<path d="M745.491 178.202C745.472 178.316 745.414 178.922 745.356 179.548C745.144 181.968 744.655 184.261 744.148 185.234C743.441 186.567 742.277 187.49 740.774 187.894C739.996 188.103 738.421 188.355 737.631 188.406C737.264 188.425 736.982 188.456 737.001 188.475C737.014 188.494 737.547 188.57 738.183 188.652C739.565 188.823 740.767 189.063 741.345 189.284C742.869 189.846 744.07 191.154 744.546 192.753C744.893 193.947 745.221 195.842 745.362 197.491C745.465 198.723 745.555 199.33 745.562 198.818C745.574 197.257 746.114 193.858 746.558 192.531C747.065 191.003 748.229 189.808 749.771 189.246C750.44 189.006 753.068 188.551 753.801 188.551C753.91 188.551 754 188.526 754 188.501C754 188.469 753.711 188.425 753.364 188.399C752.567 188.349 751.018 188.096 750.215 187.881C748.64 187.464 747.38 186.397 746.725 184.918C746.526 184.476 746.146 182.979 745.999 182.075C745.851 181.172 745.838 181.083 745.806 180.906C745.754 180.628 745.581 178.809 745.568 178.392C745.562 178.177 745.549 178 745.542 178C745.529 178 745.51 178.095 745.491 178.202Z" fill="#202020"/>
<path d="M-5.76278 695.838L-22.8607 474.882L264.842 286.807L291.804 518.942L-5.76278 695.838Z" fill="url(#paint0_linear_39_4)"/>
<path d="M264.5 289.135C264.43 290.42 264.557 297.217 264.708 304.225C265.423 331.321 262.906 357.368 258.5 368.8C252.337 384.478 240.583 396.183 224.386 402.579C216.011 405.879 198.837 410.683 190.118 412.249C186.072 412.925 182.97 413.635 183.208 413.82C183.375 414.014 189.398 414.176 196.572 414.278C212.141 414.411 225.798 415.545 232.505 417.26C250.142 421.557 265.155 434.527 272.468 451.643C277.839 464.44 283.886 485.036 287.549 503.137C290.255 516.664 292.025 523.274 291.447 517.592C289.609 500.275 291.294 461.906 294.537 446.633C298.238 429.037 309.648 414.32 326.072 406.125C333.193 402.613 361.821 394.227 369.962 393.295C371.176 393.156 372.143 392.762 372.111 392.481C372.071 392.131 368.802 392.009 364.914 392.17C355.995 392.623 338.465 391.791 329.267 390.432C311.243 387.811 295.892 377.576 286.733 362.02C283.958 357.37 277.845 341.253 275.056 331.425C272.267 321.597 272.012 320.632 271.431 318.712C270.507 315.696 266.27 295.744 265.598 291.138C265.254 288.765 264.886 286.82 264.815 286.828C264.672 286.844 264.578 287.919 264.5 289.135Z" fill="url(#paint1_linear_39_4)"/>
<path d="M158.313 256.57L127.174 103.479L-133.013 246.234L-43.8713 438.083L158.313 256.57Z" fill="url(#paint2_linear_39_4)"/>
<path d="M127.599 104.756C127.91 105.557 129.24 109.901 130.598 114.382C135.768 131.738 142.771 147.757 147.942 154.103C155.109 162.78 165.003 167.775 176.616 168.475C182.62 168.833 194.523 168.32 200.385 167.505C203.095 167.095 205.212 166.902 205.099 167.069C205.034 167.227 201.242 168.58 196.708 170.133C186.848 173.449 178.41 177.003 174.506 179.484C164.197 185.873 157.355 197.225 156.263 209.612C155.507 218.854 155.941 233.188 157.371 245.444C158.46 254.596 158.708 259.161 157.896 255.433C155.469 244.054 146.437 220.037 141.208 211.011C135.206 200.604 124.906 193.625 112.775 191.829C107.524 191.077 87.6026 191.692 82.2396 192.79C81.4398 192.953 80.7434 192.904 80.7057 192.719C80.6585 192.488 82.7093 191.732 85.2119 191.028C90.9698 189.465 101.93 185.298 107.489 182.526C118.392 177.122 126.016 167.436 128.605 155.656C129.402 152.128 129.94 140.623 129.671 133.803C129.403 126.983 129.365 126.318 129.336 124.978C129.296 122.87 127.847 109.32 127.318 106.256C127.044 104.677 126.873 103.366 126.92 103.356C127.014 103.337 127.297 104 127.599 104.756Z" fill="url(#paint3_linear_39_4)"/>
<path d="M338.803 441.227C338.68 441.488 338.131 442.91 337.57 444.378C335.425 450.065 332.699 455.261 330.816 457.262C328.21 459.996 324.779 461.432 320.875 461.39C318.856 461.367 314.883 460.911 312.94 460.498C312.043 460.296 311.339 460.181 311.373 460.24C311.391 460.294 312.628 460.838 314.109 461.466C317.331 462.811 320.071 464.202 321.318 465.126C324.617 467.51 326.637 471.474 326.707 475.647C326.74 478.758 326.253 483.547 325.482 487.616C324.899 490.654 324.707 492.176 325.068 490.947C326.152 487.196 329.748 479.371 331.714 476.474C333.971 473.133 337.586 471.042 341.69 470.73C343.466 470.604 350.12 471.285 351.889 471.78C352.153 471.854 352.387 471.854 352.404 471.793C352.426 471.717 351.757 471.415 350.936 471.119C349.046 470.459 345.476 468.803 343.681 467.742C340.16 465.673 337.839 462.249 337.253 458.243C337.07 457.043 337.164 453.179 337.417 450.902C337.669 448.625 337.698 448.403 337.74 447.955C337.803 447.251 338.611 442.749 338.862 441.736C338.991 441.214 339.079 440.779 339.064 440.775C339.033 440.766 338.922 440.981 338.803 441.227Z" fill="#5661D6"/>
<path d="M1220.19 386.148C1220.18 386.436 1220.22 387.96 1220.27 389.531C1220.49 395.605 1219.99 401.451 1219.03 404.024C1217.68 407.554 1215.08 410.206 1211.46 411.677C1209.59 412.437 1205.75 413.554 1203.8 413.925C1202.89 414.086 1202.2 414.252 1202.25 414.293C1202.29 414.336 1203.64 414.359 1205.25 414.365C1208.74 414.359 1211.81 414.581 1213.31 414.95C1217.28 415.873 1220.67 418.746 1222.35 422.567C1223.59 425.423 1224.99 430.027 1225.86 434.077C1226.49 437.104 1226.91 438.582 1226.76 437.31C1226.31 433.431 1226.6 424.824 1227.29 421.392C1228.08 417.438 1230.6 414.112 1234.27 412.236C1235.86 411.432 1242.26 409.486 1244.08 409.258C1244.35 409.224 1244.57 409.133 1244.56 409.07C1244.55 408.992 1243.82 408.972 1242.94 409.017C1240.95 409.139 1237.01 408.994 1234.95 408.71C1230.9 408.164 1227.43 405.905 1225.34 402.438C1224.71 401.402 1223.3 397.803 1222.66 395.606C1222.01 393.408 1221.95 393.193 1221.81 392.764C1221.6 392.089 1220.6 387.626 1220.44 386.594C1220.36 386.063 1220.27 385.628 1220.26 385.63C1220.22 385.634 1220.2 385.875 1220.19 386.148Z" fill="#5661D6"/>
<path d="M225.19 192.148C225.177 192.436 225.222 193.96 225.272 195.531C225.495 201.605 224.991 207.451 224.03 210.024C222.684 213.554 220.076 216.206 216.459 217.677C214.589 218.437 210.749 219.554 208.798 219.925C207.892 220.086 207.199 220.252 207.253 220.293C207.29 220.336 208.641 220.359 210.25 220.365C213.741 220.359 216.806 220.581 218.314 220.95C222.278 221.873 225.675 224.746 227.354 228.567C228.588 231.423 229.992 236.027 230.855 240.077C231.493 243.104 231.905 244.582 231.762 243.31C231.31 239.431 231.599 230.824 232.291 227.392C233.08 223.438 235.604 220.112 239.267 218.236C240.856 217.432 247.255 215.486 249.078 215.258C249.35 215.224 249.566 215.133 249.558 215.07C249.549 214.992 248.815 214.972 247.944 215.017C245.945 215.139 242.013 214.994 239.947 214.71C235.9 214.164 232.434 211.905 230.344 208.438C229.711 207.402 228.303 203.803 227.655 201.606C227.007 199.408 226.948 199.193 226.813 198.764C226.599 198.089 225.602 193.626 225.441 192.594C225.358 192.063 225.271 191.628 225.255 191.63C225.223 191.634 225.205 191.875 225.19 192.148Z" fill="#5661D6"/>
<path d="M1331.19 431.148C1331.18 431.436 1331.22 432.96 1331.27 434.531C1331.49 440.605 1330.99 446.451 1330.03 449.024C1328.68 452.554 1326.08 455.206 1322.46 456.677C1320.59 457.437 1316.75 458.554 1314.8 458.925C1313.89 459.086 1313.2 459.252 1313.25 459.293C1313.29 459.336 1314.64 459.359 1316.25 459.365C1319.74 459.359 1322.81 459.581 1324.31 459.95C1328.28 460.873 1331.67 463.746 1333.35 467.567C1334.59 470.423 1335.99 475.027 1336.86 479.077C1337.49 482.104 1337.91 483.582 1337.76 482.31C1337.31 478.431 1337.6 469.824 1338.29 466.392C1339.08 462.438 1341.6 459.112 1345.27 457.236C1346.86 456.432 1353.26 454.486 1355.08 454.258C1355.35 454.224 1355.57 454.133 1355.56 454.07C1355.55 453.992 1354.82 453.972 1353.94 454.017C1351.95 454.139 1348.01 453.994 1345.95 453.71C1341.9 453.164 1338.43 450.905 1336.34 447.438C1335.71 446.402 1334.3 442.803 1333.66 440.606C1333.01 438.408 1332.95 438.193 1332.81 437.764C1332.6 437.089 1331.6 432.626 1331.44 431.594C1331.36 431.063 1331.27 430.628 1331.26 430.63C1331.22 430.634 1331.2 430.875 1331.19 431.148Z" fill="#5661D6"/>
<path d="M257.629 65.4806C257.523 65.7493 257.073 67.2056 256.612 68.7084C254.859 74.528 252.492 79.897 250.751 82.0214C248.336 84.9264 245.01 86.5925 241.112 86.8156C239.097 86.9295 235.102 86.7451 233.136 86.4656C232.227 86.3251 231.516 86.2581 231.554 86.3144C231.576 86.3674 232.847 86.8253 234.367 87.3512C237.673 88.4742 240.501 89.6756 241.809 90.5125C245.262 92.6672 247.547 96.4843 247.901 100.643C248.145 103.745 247.984 108.556 247.492 112.667C247.117 115.738 247.029 117.27 247.306 116.019C248.132 112.203 251.188 104.152 252.952 101.128C254.977 97.6412 258.441 95.3095 262.514 94.7192C264.278 94.4721 270.963 94.6991 272.762 95.0729C273.03 95.1287 273.264 95.1127 273.276 95.0508C273.293 94.9734 272.605 94.7175 271.766 94.4785C269.835 93.948 266.161 92.5385 264.298 91.6023C260.644 89.7773 258.095 86.5189 257.239 82.5627C256.975 81.3776 256.806 77.516 256.903 75.2273C257 72.9386 257.014 72.7153 257.025 72.2656C257.04 71.5583 257.541 67.0123 257.722 65.9842C257.815 65.4547 257.874 65.0148 257.858 65.0115C257.826 65.005 257.731 65.2273 257.629 65.4806Z" fill="#5661D6"/>
<path d="M320.001 304.027C320.01 304.23 320.133 305.296 320.264 306.395C320.79 310.641 320.792 314.773 320.274 316.636C319.545 319.194 317.877 321.213 315.43 322.465C314.164 323.111 311.539 324.128 310.193 324.507C309.567 324.675 309.091 324.834 309.131 324.86C309.16 324.888 310.109 324.821 311.238 324.727C313.686 324.511 315.849 324.48 316.929 324.648C319.766 325.054 322.323 326.862 323.734 329.44C324.773 331.369 326.037 334.513 326.889 337.301C327.521 339.386 327.9 340.397 327.722 339.513C327.169 336.82 326.848 330.766 327.125 328.316C327.438 325.495 329.006 323.008 331.462 321.47C332.527 320.809 336.897 319.054 338.162 318.784C338.351 318.743 338.497 318.667 338.488 318.623C338.476 318.569 337.96 318.599 337.352 318.684C335.957 318.891 333.19 319.028 331.724 318.955C328.852 318.818 326.284 317.444 324.607 315.14C324.1 314.452 322.894 312.012 322.305 310.511C321.717 309.009 321.662 308.861 321.542 308.568C321.35 308.109 320.38 305.038 320.204 304.325C320.114 303.957 320.026 303.657 320.015 303.659C319.993 303.664 319.995 303.835 320.001 304.027Z" fill="#5661D6"/>
<path d="M1365.73 586.492C1365.74 586.695 1365.87 587.761 1366 588.86C1366.52 593.107 1366.52 597.238 1366.01 599.101C1365.28 601.659 1363.61 603.678 1361.16 604.93C1359.9 605.576 1357.27 606.593 1355.92 606.972C1355.3 607.14 1354.82 607.299 1354.86 607.325C1354.89 607.353 1355.84 607.286 1356.97 607.193C1359.42 606.976 1361.58 606.946 1362.66 607.113C1365.5 607.519 1368.06 609.328 1369.47 611.905C1370.51 613.834 1371.77 616.978 1372.62 619.766C1373.25 621.851 1373.63 622.862 1373.45 621.978C1372.9 619.285 1372.58 613.231 1372.86 610.781C1373.17 607.96 1374.74 605.473 1377.19 603.935C1378.26 603.274 1382.63 601.52 1383.89 601.249C1384.08 601.209 1384.23 601.132 1384.22 601.088C1384.21 601.034 1383.69 601.064 1383.08 601.149C1381.69 601.356 1378.92 601.493 1377.46 601.42C1374.58 601.283 1372.02 599.91 1370.34 597.605C1369.83 596.917 1368.63 594.477 1368.04 592.976C1367.45 591.474 1367.39 591.326 1367.27 591.034C1367.08 590.574 1366.11 587.503 1365.94 586.79C1365.85 586.422 1365.76 586.122 1365.75 586.125C1365.73 586.129 1365.73 586.3 1365.73 586.492Z" fill="#5661D6"/>
<path d="M277.733 616.492C277.742 616.695 277.866 617.761 277.996 618.86C278.522 623.107 278.524 627.238 278.006 629.101C277.277 631.659 275.609 633.678 273.162 634.93C271.896 635.576 269.271 636.593 267.925 636.972C267.299 637.14 266.823 637.299 266.863 637.325C266.892 637.353 267.841 637.286 268.97 637.193C271.418 636.976 273.582 636.946 274.662 637.113C277.499 637.519 280.055 639.328 281.466 641.905C282.505 643.834 283.77 646.978 284.622 649.766C285.253 651.851 285.632 652.862 285.455 651.978C284.902 649.285 284.581 643.231 284.857 640.781C285.17 637.96 286.738 635.473 289.194 633.935C290.259 633.274 294.63 631.52 295.895 631.249C296.083 631.209 296.229 631.132 296.22 631.088C296.208 631.034 295.693 631.064 295.084 631.149C293.69 631.356 290.922 631.493 289.456 631.42C286.584 631.283 284.016 629.91 282.339 627.605C281.832 626.917 280.626 624.477 280.037 622.976C279.449 621.474 279.394 621.326 279.274 621.034C279.082 620.574 278.112 617.503 277.936 616.79C277.846 616.422 277.759 616.122 277.748 616.125C277.725 616.129 277.727 616.3 277.733 616.492Z" fill="#5661D6"/>
<path d="M329.046 165.941C328.952 166.121 328.53 167.108 328.098 168.127C326.445 172.074 324.395 175.66 323.02 177.021C321.117 178.878 318.666 179.802 315.92 179.673C314.501 179.606 311.717 179.185 310.36 178.845C309.734 178.68 309.241 178.581 309.264 178.624C309.275 178.662 310.132 179.076 311.158 179.555C313.391 180.583 315.283 181.631 316.138 182.313C318.398 184.074 319.719 186.914 319.663 189.852C319.607 192.042 319.143 195.399 318.498 198.242C318.011 200.365 317.837 201.431 318.122 200.576C318.979 197.964 321.708 192.549 323.165 190.561C324.838 188.267 327.434 186.888 330.329 186.772C331.582 186.728 336.247 187.376 337.479 187.769C337.663 187.828 337.828 187.834 337.841 187.791C337.858 187.738 337.395 187.509 336.825 187.28C335.512 186.768 333.042 185.512 331.806 184.72C329.381 183.175 327.834 180.707 327.524 177.874C327.425 177.025 327.59 174.309 327.825 172.713C328.06 171.117 328.086 170.962 328.127 170.648C328.189 170.154 328.872 167.007 329.074 166.3C329.178 165.936 329.251 165.633 329.24 165.629C329.219 165.622 329.136 165.771 329.046 165.941Z" fill="#5661D6"/>
<path d="M1262.69 570.25C1262.62 570.432 1262.3 571.417 1261.96 572.434C1260.7 576.372 1259.02 579.996 1257.81 581.42C1256.13 583.367 1253.84 584.459 1251.19 584.562C1249.82 584.614 1247.1 584.439 1245.77 584.224C1245.15 584.117 1244.67 584.063 1244.69 584.101C1244.71 584.138 1245.56 584.465 1246.59 584.842C1248.83 585.648 1250.74 586.501 1251.62 587.086C1253.94 588.596 1255.45 591.222 1255.64 594.056C1255.76 596.17 1255.59 599.441 1255.21 602.233C1254.91 604.318 1254.84 605.359 1255.04 604.512C1255.65 601.925 1257.83 596.485 1259.07 594.449C1260.49 592.102 1262.88 590.558 1265.65 590.208C1266.86 590.062 1271.4 590.3 1272.62 590.576C1272.8 590.618 1272.96 590.61 1272.97 590.568C1272.99 590.515 1272.52 590.333 1271.95 590.159C1270.65 589.774 1268.16 588.769 1266.91 588.109C1264.44 586.821 1262.75 584.572 1262.22 581.869C1262.05 581.06 1261.98 578.43 1262.08 576.874C1262.17 575.318 1262.19 575.166 1262.2 574.86C1262.22 574.379 1262.62 571.292 1262.75 570.594C1262.82 570.235 1262.87 569.937 1262.86 569.934C1262.84 569.929 1262.77 570.079 1262.69 570.25Z" fill="#5661D6"/>
<path d="M1275.84 257.47C1275.84 257.673 1275.96 258.74 1276.09 259.839C1276.59 264.089 1276.57 268.22 1276.04 270.081C1275.29 272.634 1273.61 274.643 1271.16 275.881C1269.89 276.52 1267.26 277.522 1265.91 277.893C1265.28 278.057 1264.81 278.213 1264.85 278.239C1264.87 278.267 1265.82 278.206 1266.95 278.119C1269.4 277.917 1271.57 277.899 1272.65 278.073C1275.48 278.495 1278.03 280.319 1279.42 282.905C1280.45 284.84 1281.7 287.991 1282.53 290.784C1283.15 292.872 1283.52 293.886 1283.35 293.001C1282.81 290.305 1282.53 284.248 1282.82 281.801C1283.15 278.981 1284.73 276.503 1287.2 274.979C1288.26 274.325 1292.65 272.596 1293.91 272.333C1294.1 272.293 1294.25 272.217 1294.24 272.174C1294.23 272.119 1293.71 272.147 1293.1 272.228C1291.71 272.427 1288.94 272.548 1287.47 272.466C1284.6 272.313 1282.04 270.924 1280.38 268.61C1279.87 267.919 1278.68 265.472 1278.1 263.967C1277.52 262.462 1277.47 262.314 1277.35 262.021C1277.16 261.56 1276.21 258.484 1276.04 257.769C1275.95 257.401 1275.86 257.1 1275.85 257.103C1275.83 257.107 1275.83 257.278 1275.84 257.47Z" fill="#5661D6"/>
<path d="M1272.86 141.192C1272.76 141.368 1272.29 142.331 1271.8 143.325C1269.94 147.179 1267.71 150.653 1266.26 151.938C1264.26 153.693 1261.77 154.486 1259.03 154.212C1257.62 154.07 1254.86 153.502 1253.52 153.091C1252.91 152.894 1252.42 152.769 1252.44 152.812C1252.45 152.851 1253.28 153.31 1254.28 153.843C1256.46 154.987 1258.29 156.134 1259.11 156.86C1261.27 158.738 1262.44 161.644 1262.23 164.574C1262.06 166.759 1261.42 170.086 1260.62 172.891C1260.03 174.986 1259.8 176.041 1260.13 175.202C1261.12 172.639 1264.13 167.376 1265.69 165.467C1267.48 163.266 1270.15 162.025 1273.04 162.063C1274.3 162.085 1278.92 162.978 1280.13 163.436C1280.31 163.504 1280.48 163.519 1280.49 163.477C1280.51 163.425 1280.06 163.172 1279.5 162.913C1278.22 162.332 1275.82 160.947 1274.63 160.091C1272.29 158.42 1270.87 155.874 1270.71 153.029C1270.66 152.175 1270.97 149.472 1271.29 147.891C1271.61 146.31 1271.64 146.156 1271.7 145.844C1271.79 145.354 1272.63 142.248 1272.87 141.553C1273 141.195 1273.09 140.896 1273.07 140.891C1273.05 140.883 1272.96 141.028 1272.86 141.192Z" fill="#5661D6"/>
<path d="M1205.13 241.488C1205.09 241.578 1204.91 242.068 1204.72 242.573C1204.01 244.531 1203.09 246.322 1202.45 247.016C1201.57 247.963 1200.4 248.468 1199.06 248.469C1198.37 248.469 1197.01 248.328 1196.34 248.194C1196.03 248.128 1195.79 248.091 1195.8 248.111C1195.81 248.13 1196.23 248.311 1196.74 248.521C1197.85 248.97 1198.8 249.436 1199.23 249.748C1200.37 250.553 1201.08 251.904 1201.12 253.334C1201.14 254.401 1200.99 256.044 1200.74 257.442C1200.55 258.485 1200.49 259.008 1200.61 258.585C1200.97 257.295 1202.17 254.599 1202.83 253.598C1203.6 252.444 1204.83 251.714 1206.23 251.591C1206.84 251.541 1209.12 251.749 1209.73 251.912C1209.82 251.936 1209.9 251.935 1209.91 251.914C1209.92 251.888 1209.69 251.787 1209.4 251.689C1208.75 251.47 1207.52 250.916 1206.9 250.559C1205.69 249.863 1204.88 248.698 1204.66 247.327C1204.6 246.917 1204.61 245.592 1204.69 244.81C1204.77 244.029 1204.78 243.952 1204.79 243.799C1204.81 243.557 1205.07 242.011 1205.15 241.662C1205.19 241.483 1205.22 241.333 1205.22 241.332C1205.21 241.329 1205.17 241.403 1205.13 241.488Z" fill="#5661D6"/>
</g>
<defs>
<linearGradient id="paint0_linear_39_4" x1="-14.9994" y1="582.996" x2="0.364195" y2="943.096" gradientUnits="userSpaceOnUse">
<stop stop-color="#4752CF"/>
<stop offset="1" stop-color="#8991EE"/>
</linearGradient>
<linearGradient id="paint1_linear_39_4" x1="202.754" y1="335.738" x2="385.513" y2="422.273" gradientUnits="userSpaceOnUse">
<stop stop-color="#B3B3B3"/>
<stop offset="0.504808" stop-color="#D9D9D9"/>
</linearGradient>
<linearGradient id="paint2_linear_39_4" x1="247.75" y1="249.887" x2="232.659" y2="603.607" gradientUnits="userSpaceOnUse">
<stop stop-color="#4752CF"/>
<stop offset="1" stop-color="#8991EE"/>
</linearGradient>
<linearGradient id="paint3_linear_39_4" x1="191.123" y1="164.845" x2="56.7647" y2="222.981" gradientUnits="userSpaceOnUse">
<stop stop-color="#FF7CBD"/>
<stop offset="1" stop-color="#B25382"/>
</linearGradient>
<clipPath id="clip0_39_4">
<rect width="1440" height="726" fill="white"/>
</clipPath>
</defs>
</svg>
