<?xml version="1.0" standalone="no"?>
<!DOCTYPE svg PUBLIC "-//W3C//DTD SVG 20010904//EN"
 "http://www.w3.org/TR/2001/REC-SVG-20010904/DTD/svg10.dtd">
<svg version="1.0" xmlns="http://www.w3.org/2000/svg"
 width="388.000000pt" height="360.000000pt" viewBox="0 0 388.000000 360.000000"
 preserveAspectRatio="xMidYMid meet">

<g transform="translate(0.000000,360.000000) scale(0.100000,-0.100000)"
fill="#000000" stroke="none">
<path d="M1936 3438 c-3 -18 -12 -114 -21 -213 -33 -383 -109 -746 -188 -900
-110 -211 -291 -357 -525 -421 -121 -33 -366 -73 -489 -81 -57 -3 -101 -8 -98
-11 2 -3 85 -15 184 -28 215 -27 402 -65 492 -100 237 -89 424 -296 498 -549
54 -189 105 -489 127 -750 16 -195 30 -291 31 -210 2 247 86 785 155 995 79
242 260 431 500 520 104 38 513 110 627 110 17 0 31 4 31 8 0 5 -45 12 -99 16
-124 8 -365 48 -490 82 -245 66 -441 235 -543 469 -31 70 -90 307 -113 450
-23 143 -25 157 -30 185 -8 44 -35 332 -37 398 -1 34 -3 62 -4 62 -2 0 -5 -15
-8 -32z"/>
<path d="M811 314 c0 -11 3 -14 6 -6 3 7 2 16 -1 19 -3 4 -6 -2 -5 -13z"/>
</g>
</svg>
