<svg width="545" height="311" viewBox="0 0 545 311" fill="none" xmlns="http://www.w3.org/2000/svg">
<rect y="52" width="545" height="259" rx="35" fill="url(#paint0_linear_29_4)"/>
<g filter="url(#filter0_d_29_4)">
<path d="M265.5 209L486.769 52.25H44.2305L265.5 209Z" fill="#D9D9D9"/>
</g>
<path d="M69.0795 280H68.0227C67.9602 279.696 67.8509 279.429 67.6946 279.199C67.5412 278.969 67.3537 278.776 67.1321 278.619C66.9134 278.46 66.6705 278.341 66.4034 278.261C66.1364 278.182 65.858 278.142 65.5682 278.142C65.0398 278.142 64.5611 278.276 64.1321 278.543C63.706 278.81 63.3665 279.203 63.1136 279.723C62.8636 280.243 62.7386 280.881 62.7386 281.636C62.7386 282.392 62.8636 283.03 63.1136 283.55C63.3665 284.07 63.706 284.463 64.1321 284.73C64.5611 284.997 65.0398 285.131 65.5682 285.131C65.858 285.131 66.1364 285.091 66.4034 285.011C66.6705 284.932 66.9134 284.814 67.1321 284.658C67.3537 284.499 67.5412 284.304 67.6946 284.074C67.8509 283.841 67.9602 283.574 68.0227 283.273H69.0795C69 283.719 68.8551 284.118 68.6449 284.47C68.4347 284.822 68.1733 285.122 67.8608 285.369C67.5483 285.614 67.1974 285.8 66.8082 285.928C66.4219 286.055 66.0085 286.119 65.5682 286.119C64.8239 286.119 64.1619 285.938 63.5824 285.574C63.0028 285.21 62.5469 284.693 62.2145 284.023C61.8821 283.352 61.7159 282.557 61.7159 281.636C61.7159 280.716 61.8821 279.92 62.2145 279.25C62.5469 278.58 63.0028 278.062 63.5824 277.699C64.1619 277.335 64.8239 277.153 65.5682 277.153C66.0085 277.153 66.4219 277.217 66.8082 277.345C67.1974 277.473 67.5483 277.661 67.8608 277.908C68.1733 278.152 68.4347 278.45 68.6449 278.803C68.8551 279.152 69 279.551 69.0795 280ZM73.1771 286.153C72.7623 286.153 72.3859 286.075 72.0478 285.919C71.7097 285.76 71.4413 285.531 71.2424 285.233C71.0435 284.932 70.9441 284.568 70.9441 284.142C70.9441 283.767 71.018 283.463 71.1657 283.23C71.3134 282.994 71.5109 282.81 71.758 282.676C72.0052 282.543 72.2779 282.443 72.5762 282.378C72.8773 282.31 73.1799 282.256 73.4839 282.216C73.8816 282.165 74.204 282.126 74.4512 282.101C74.7012 282.072 74.883 282.026 74.9967 281.96C75.1131 281.895 75.1714 281.781 75.1714 281.619V281.585C75.1714 281.165 75.0563 280.838 74.8262 280.605C74.5989 280.372 74.2538 280.256 73.7907 280.256C73.3106 280.256 72.9342 280.361 72.6614 280.571C72.3887 280.781 72.1969 281.006 72.0862 281.244L71.1316 280.903C71.3021 280.506 71.5293 280.196 71.8134 279.974C72.1004 279.75 72.4129 279.594 72.7509 279.506C73.0918 279.415 73.4271 279.369 73.7566 279.369C73.9668 279.369 74.2083 279.395 74.481 279.446C74.7566 279.494 75.0222 279.595 75.2779 279.749C75.5364 279.902 75.7509 280.134 75.9214 280.443C76.0918 280.753 76.1771 281.168 76.1771 281.688V286H75.1714V285.114H75.1202C75.0521 285.256 74.9384 285.408 74.7793 285.57C74.6202 285.732 74.4086 285.869 74.1444 285.983C73.8802 286.097 73.5577 286.153 73.1771 286.153ZM73.3305 285.25C73.7282 285.25 74.0634 285.172 74.3362 285.016C74.6117 284.859 74.8191 284.658 74.9583 284.411C75.1004 284.163 75.1714 283.903 75.1714 283.631V282.71C75.1288 282.761 75.035 282.808 74.8901 282.851C74.7481 282.891 74.5833 282.926 74.3958 282.957C74.2112 282.986 74.0308 283.011 73.8546 283.034C73.6813 283.054 73.5407 283.071 73.4327 283.085C73.1714 283.119 72.9271 283.175 72.6998 283.251C72.4754 283.325 72.2935 283.437 72.1543 283.588C72.018 283.736 71.9498 283.937 71.9498 284.193C71.9498 284.543 72.079 284.807 72.3376 284.986C72.5989 285.162 72.9299 285.25 73.3305 285.25ZM78.6126 288.455V279.455H79.5842V280.494H79.7036C79.7774 280.381 79.8797 280.236 80.0104 280.06C80.1439 279.881 80.3342 279.722 80.5814 279.582C80.8314 279.44 81.1695 279.369 81.5956 279.369C82.1467 279.369 82.6325 279.507 83.053 279.783C83.4734 280.058 83.8016 280.449 84.0374 280.955C84.2732 281.46 84.3911 282.057 84.3911 282.744C84.3911 283.438 84.2732 284.038 84.0374 284.547C83.8016 285.053 83.4749 285.445 83.0572 285.723C82.6396 285.999 82.1581 286.136 81.6126 286.136C81.1922 286.136 80.8555 286.067 80.6027 285.928C80.3499 285.786 80.1553 285.625 80.0189 285.446C79.8825 285.264 79.7774 285.114 79.7036 284.994H79.6183V288.455H78.6126ZM79.6013 282.727C79.6013 283.222 79.6737 283.658 79.8186 284.036C79.9635 284.411 80.1751 284.705 80.4536 284.918C80.732 285.128 81.0729 285.233 81.4763 285.233C81.8967 285.233 82.2476 285.122 82.5288 284.901C82.8129 284.676 83.026 284.375 83.168 283.997C83.3129 283.616 83.3854 283.193 83.3854 282.727C83.3854 282.267 83.3143 281.852 83.1723 281.483C83.0331 281.111 82.8214 280.817 82.5374 280.601C82.2561 280.382 81.9024 280.273 81.4763 280.273C81.0672 280.273 80.7234 280.376 80.445 280.584C80.1666 280.788 79.9564 281.075 79.8143 281.445C79.6723 281.811 79.6013 282.239 79.6013 282.727ZM88.4513 286.153C88.0365 286.153 87.6601 286.075 87.322 285.919C86.9839 285.76 86.7155 285.531 86.5166 285.233C86.3178 284.932 86.2183 284.568 86.2183 284.142C86.2183 283.767 86.2922 283.463 86.4399 283.23C86.5876 282.994 86.7851 282.81 87.0322 282.676C87.2794 282.543 87.5521 282.443 87.8504 282.378C88.1516 282.31 88.4541 282.256 88.7581 282.216C89.1558 282.165 89.4783 282.126 89.7254 282.101C89.9754 282.072 90.1572 282.026 90.2709 281.96C90.3874 281.895 90.4456 281.781 90.4456 281.619V281.585C90.4456 281.165 90.3305 280.838 90.1004 280.605C89.8732 280.372 89.528 280.256 89.0649 280.256C88.5848 280.256 88.2084 280.361 87.9357 280.571C87.6629 280.781 87.4712 281.006 87.3604 281.244L86.4058 280.903C86.5763 280.506 86.8036 280.196 87.0876 279.974C87.3746 279.75 87.6871 279.594 88.0251 279.506C88.3661 279.415 88.7013 279.369 89.0308 279.369C89.2411 279.369 89.4825 279.395 89.7553 279.446C90.0308 279.494 90.2964 279.595 90.5521 279.749C90.8107 279.902 91.0251 280.134 91.1956 280.443C91.3661 280.753 91.4513 281.168 91.4513 281.688V286H90.4456V285.114H90.3945C90.3263 285.256 90.2126 285.408 90.0536 285.57C89.8945 285.732 89.6828 285.869 89.4186 285.983C89.1544 286.097 88.832 286.153 88.4513 286.153ZM88.6047 285.25C89.0024 285.25 89.3376 285.172 89.6104 285.016C89.8859 284.859 90.0933 284.658 90.2325 284.411C90.3746 284.163 90.4456 283.903 90.4456 283.631V282.71C90.403 282.761 90.3092 282.808 90.1643 282.851C90.0223 282.891 89.8575 282.926 89.67 282.957C89.4854 282.986 89.305 283.011 89.1288 283.034C88.9555 283.054 88.8149 283.071 88.707 283.085C88.4456 283.119 88.2013 283.175 87.974 283.251C87.7496 283.325 87.5678 283.437 87.4286 283.588C87.2922 283.736 87.224 283.937 87.224 284.193C87.224 284.543 87.3533 284.807 87.6118 284.986C87.8732 285.162 88.2041 285.25 88.6047 285.25ZM98.5232 280.92L97.6198 281.176C97.563 281.026 97.4792 280.879 97.3684 280.737C97.2604 280.592 97.1127 280.473 96.9252 280.379C96.7377 280.286 96.4977 280.239 96.205 280.239C95.8045 280.239 95.4707 280.331 95.2036 280.516C94.9394 280.697 94.8073 280.929 94.8073 281.21C94.8073 281.46 94.8982 281.658 95.08 281.803C95.2619 281.947 95.546 282.068 95.9323 282.165L96.9039 282.403C97.4891 282.545 97.9252 282.763 98.2121 283.055C98.4991 283.345 98.6425 283.719 98.6425 284.176C98.6425 284.551 98.5346 284.886 98.3187 285.182C98.1056 285.477 97.8073 285.71 97.4238 285.881C97.0403 286.051 96.5942 286.136 96.0857 286.136C95.4181 286.136 94.8656 285.991 94.4281 285.702C93.9906 285.412 93.7136 284.989 93.5971 284.432L94.5516 284.193C94.6425 284.545 94.8144 284.81 95.0673 284.986C95.3229 285.162 95.6567 285.25 96.0687 285.25C96.5374 285.25 96.9096 285.151 97.1852 284.952C97.4636 284.75 97.6028 284.509 97.6028 284.227C97.6028 284 97.5232 283.81 97.3641 283.656C97.205 283.5 96.9607 283.384 96.6312 283.307L95.5403 283.051C94.9408 282.909 94.5005 282.689 94.2192 282.391C93.9408 282.089 93.8016 281.713 93.8016 281.261C93.8016 280.892 93.9053 280.565 94.1127 280.281C94.3229 279.997 94.6085 279.774 94.9692 279.612C95.3329 279.45 95.7448 279.369 96.205 279.369C96.8528 279.369 97.3613 279.511 97.7306 279.795C98.1028 280.08 98.367 280.455 98.5232 280.92ZM107.203 286.136C106.658 286.136 106.176 285.999 105.758 285.723C105.341 285.445 105.014 285.053 104.778 284.547C104.542 284.038 104.425 283.438 104.425 282.744C104.425 282.057 104.542 281.46 104.778 280.955C105.014 280.449 105.342 280.058 105.763 279.783C106.183 279.507 106.669 279.369 107.22 279.369C107.646 279.369 107.983 279.44 108.23 279.582C108.48 279.722 108.67 279.881 108.801 280.06C108.935 280.236 109.038 280.381 109.112 280.494H109.197V277.273H110.203V286H109.231V284.994H109.112C109.038 285.114 108.933 285.264 108.797 285.446C108.66 285.625 108.466 285.786 108.213 285.928C107.96 286.067 107.623 286.136 107.203 286.136ZM107.339 285.233C107.743 285.233 108.084 285.128 108.362 284.918C108.64 284.705 108.852 284.411 108.997 284.036C109.142 283.658 109.214 283.222 109.214 282.727C109.214 282.239 109.143 281.811 109.001 281.445C108.859 281.075 108.649 280.788 108.371 280.584C108.092 280.376 107.748 280.273 107.339 280.273C106.913 280.273 106.558 280.382 106.274 280.601C105.993 280.817 105.781 281.111 105.639 281.483C105.5 281.852 105.43 282.267 105.43 282.727C105.43 283.193 105.501 283.616 105.643 283.997C105.788 284.375 106.001 284.676 106.283 284.901C106.567 285.122 106.919 285.233 107.339 285.233ZM115.529 286.136C114.898 286.136 114.354 285.997 113.897 285.719C113.442 285.438 113.091 285.045 112.844 284.543C112.6 284.037 112.478 283.449 112.478 282.778C112.478 282.108 112.6 281.517 112.844 281.006C113.091 280.491 113.435 280.091 113.875 279.804C114.319 279.514 114.836 279.369 115.427 279.369C115.767 279.369 116.104 279.426 116.437 279.54C116.769 279.653 117.071 279.838 117.344 280.094C117.617 280.347 117.834 280.682 117.996 281.099C118.158 281.517 118.239 282.031 118.239 282.642V283.068H113.194V282.199H117.216C117.216 281.83 117.142 281.5 116.995 281.21C116.85 280.92 116.642 280.692 116.373 280.524C116.106 280.357 115.79 280.273 115.427 280.273C115.026 280.273 114.679 280.372 114.387 280.571C114.097 280.767 113.874 281.023 113.718 281.338C113.562 281.653 113.483 281.991 113.483 282.352V282.932C113.483 283.426 113.569 283.845 113.739 284.189C113.912 284.53 114.152 284.79 114.459 284.969C114.766 285.145 115.123 285.233 115.529 285.233C115.793 285.233 116.032 285.196 116.245 285.122C116.461 285.045 116.647 284.932 116.803 284.781C116.959 284.628 117.08 284.437 117.165 284.21L118.137 284.483C118.035 284.812 117.863 285.102 117.621 285.352C117.38 285.599 117.081 285.793 116.726 285.932C116.371 286.068 115.972 286.136 115.529 286.136ZM125.35 277.273V286H124.344V277.273H125.35ZM127.792 286V279.455H128.797V286H127.792ZM128.303 278.364C128.107 278.364 127.938 278.297 127.796 278.163C127.657 278.03 127.587 277.869 127.587 277.682C127.587 277.494 127.657 277.334 127.796 277.2C127.938 277.067 128.107 277 128.303 277C128.499 277 128.667 277.067 128.806 277.2C128.948 277.334 129.019 277.494 129.019 277.682C129.019 277.869 128.948 278.03 128.806 278.163C128.667 278.297 128.499 278.364 128.303 278.364ZM136.591 279.455L134.171 286H133.148L130.728 279.455H131.819L133.626 284.67H133.694L135.501 279.455H136.591ZM138.519 286V279.455H139.49V280.443H139.559C139.678 280.119 139.894 279.857 140.206 279.655C140.519 279.453 140.871 279.352 141.263 279.352C141.337 279.352 141.429 279.354 141.54 279.357C141.651 279.359 141.735 279.364 141.792 279.369V280.392C141.758 280.384 141.679 280.371 141.557 280.354C141.438 280.334 141.312 280.324 141.178 280.324C140.86 280.324 140.576 280.391 140.326 280.524C140.079 280.655 139.883 280.837 139.738 281.07C139.596 281.3 139.525 281.562 139.525 281.858V286H138.519ZM146.044 286.136C145.453 286.136 144.934 285.996 144.488 285.714C144.045 285.433 143.698 285.04 143.448 284.534C143.201 284.028 143.078 283.437 143.078 282.761C143.078 282.08 143.201 281.484 143.448 280.976C143.698 280.467 144.045 280.072 144.488 279.791C144.934 279.51 145.453 279.369 146.044 279.369C146.635 279.369 147.152 279.51 147.595 279.791C148.041 280.072 148.387 280.467 148.635 280.976C148.885 281.484 149.01 282.08 149.01 282.761C149.01 283.437 148.885 284.028 148.635 284.534C148.387 285.04 148.041 285.433 147.595 285.714C147.152 285.996 146.635 286.136 146.044 286.136ZM146.044 285.233C146.492 285.233 146.862 285.118 147.152 284.888C147.441 284.658 147.656 284.355 147.795 283.98C147.934 283.605 148.004 283.199 148.004 282.761C148.004 282.324 147.934 281.916 147.795 281.538C147.656 281.161 147.441 280.855 147.152 280.622C146.862 280.389 146.492 280.273 146.044 280.273C145.595 280.273 145.225 280.389 144.936 280.622C144.646 280.855 144.431 281.161 144.292 281.538C144.153 281.916 144.083 282.324 144.083 282.761C144.083 283.199 144.153 283.605 144.292 283.98C144.431 284.355 144.646 284.658 144.936 284.888C145.225 285.118 145.595 285.233 146.044 285.233ZM156.586 274.46V288.812H155.733V274.46H156.586ZM163.757 277.273H165.018L167.984 284.517H168.086L171.052 277.273H172.314V286H171.325V279.369H171.24L168.512 286H167.558L164.831 279.369H164.745V286H163.757V277.273ZM176.822 286.153C176.408 286.153 176.031 286.075 175.693 285.919C175.355 285.76 175.087 285.531 174.888 285.233C174.689 284.932 174.589 284.568 174.589 284.142C174.589 283.767 174.663 283.463 174.811 283.23C174.959 282.994 175.156 282.81 175.403 282.676C175.651 282.543 175.923 282.443 176.222 282.378C176.523 282.31 176.825 282.256 177.129 282.216C177.527 282.165 177.849 282.126 178.097 282.101C178.347 282.072 178.528 282.026 178.642 281.96C178.758 281.895 178.817 281.781 178.817 281.619V281.585C178.817 281.165 178.702 280.838 178.472 280.605C178.244 280.372 177.899 280.256 177.436 280.256C176.956 280.256 176.579 280.361 176.307 280.571C176.034 280.781 175.842 281.006 175.731 281.244L174.777 280.903C174.947 280.506 175.175 280.196 175.459 279.974C175.746 279.75 176.058 279.594 176.396 279.506C176.737 279.415 177.072 279.369 177.402 279.369C177.612 279.369 177.854 279.395 178.126 279.446C178.402 279.494 178.668 279.595 178.923 279.749C179.182 279.902 179.396 280.134 179.567 280.443C179.737 280.753 179.822 281.168 179.822 281.688V286H178.817V285.114H178.766C178.697 285.256 178.584 285.408 178.425 285.57C178.266 285.732 178.054 285.869 177.79 285.983C177.526 286.097 177.203 286.153 176.822 286.153ZM176.976 285.25C177.374 285.25 177.709 285.172 177.981 285.016C178.257 284.859 178.464 284.658 178.604 284.411C178.746 284.163 178.817 283.903 178.817 283.631V282.71C178.774 282.761 178.68 282.808 178.535 282.851C178.393 282.891 178.229 282.926 178.041 282.957C177.856 282.986 177.676 283.011 177.5 283.034C177.327 283.054 177.186 283.071 177.078 283.085C176.817 283.119 176.572 283.175 176.345 283.251C176.121 283.325 175.939 283.437 175.8 283.588C175.663 283.736 175.595 283.937 175.595 284.193C175.595 284.543 175.724 284.807 175.983 284.986C176.244 285.162 176.575 285.25 176.976 285.25ZM182.258 286V279.455H183.23V280.443H183.298C183.417 280.119 183.633 279.857 183.945 279.655C184.258 279.453 184.61 279.352 185.002 279.352C185.076 279.352 185.168 279.354 185.279 279.357C185.39 279.359 185.474 279.364 185.531 279.369V280.392C185.497 280.384 185.418 280.371 185.296 280.354C185.177 280.334 185.051 280.324 184.917 280.324C184.599 280.324 184.315 280.391 184.065 280.524C183.818 280.655 183.622 280.837 183.477 281.07C183.335 281.3 183.264 281.562 183.264 281.858V286H182.258ZM189.783 286.136C189.169 286.136 188.641 285.991 188.197 285.702C187.754 285.412 187.413 285.013 187.175 284.504C186.936 283.996 186.817 283.415 186.817 282.761C186.817 282.097 186.939 281.51 187.183 281.001C187.43 280.49 187.774 280.091 188.214 279.804C188.658 279.514 189.175 279.369 189.766 279.369C190.226 279.369 190.641 279.455 191.01 279.625C191.379 279.795 191.682 280.034 191.918 280.341C192.153 280.648 192.3 281.006 192.357 281.415H191.351C191.274 281.116 191.104 280.852 190.839 280.622C190.578 280.389 190.226 280.273 189.783 280.273C189.391 280.273 189.047 280.375 188.751 280.58C188.459 280.781 188.23 281.067 188.065 281.436C187.903 281.803 187.822 282.233 187.822 282.727C187.822 283.233 187.902 283.673 188.061 284.048C188.223 284.423 188.45 284.714 188.743 284.922C189.038 285.129 189.385 285.233 189.783 285.233C190.044 285.233 190.281 285.188 190.494 285.097C190.707 285.006 190.888 284.875 191.036 284.705C191.183 284.534 191.288 284.33 191.351 284.091H192.357C192.3 284.477 192.159 284.825 191.935 285.135C191.713 285.442 191.419 285.686 191.053 285.868C190.689 286.047 190.266 286.136 189.783 286.136ZM196.353 286.153C195.938 286.153 195.562 286.075 195.224 285.919C194.886 285.76 194.617 285.531 194.418 285.233C194.219 284.932 194.12 284.568 194.12 284.142C194.12 283.767 194.194 283.463 194.341 283.23C194.489 282.994 194.687 282.81 194.934 282.676C195.181 282.543 195.454 282.443 195.752 282.378C196.053 282.31 196.356 282.256 196.66 282.216C197.057 282.165 197.38 282.126 197.627 282.101C197.877 282.072 198.059 282.026 198.172 281.96C198.289 281.895 198.347 281.781 198.347 281.619V281.585C198.347 281.165 198.232 280.838 198.002 280.605C197.775 280.372 197.43 280.256 196.966 280.256C196.486 280.256 196.11 280.361 195.837 280.571C195.564 280.781 195.373 281.006 195.262 281.244L194.307 280.903C194.478 280.506 194.705 280.196 194.989 279.974C195.276 279.75 195.589 279.594 195.927 279.506C196.268 279.415 196.603 279.369 196.932 279.369C197.143 279.369 197.384 279.395 197.657 279.446C197.932 279.494 198.198 279.595 198.454 279.749C198.712 279.902 198.927 280.134 199.097 280.443C199.268 280.753 199.353 281.168 199.353 281.688V286H198.347V285.114H198.296C198.228 285.256 198.114 285.408 197.955 285.57C197.796 285.732 197.584 285.869 197.32 285.983C197.056 286.097 196.734 286.153 196.353 286.153ZM196.506 285.25C196.904 285.25 197.239 285.172 197.512 285.016C197.788 284.859 197.995 284.658 198.134 284.411C198.276 284.163 198.347 283.903 198.347 283.631V282.71C198.305 282.761 198.211 282.808 198.066 282.851C197.924 282.891 197.759 282.926 197.572 282.957C197.387 282.986 197.207 283.011 197.03 283.034C196.857 283.054 196.716 283.071 196.609 283.085C196.347 283.119 196.103 283.175 195.876 283.251C195.651 283.325 195.469 283.437 195.33 283.588C195.194 283.736 195.126 283.937 195.126 284.193C195.126 284.543 195.255 284.807 195.513 284.986C195.775 285.162 196.106 285.25 196.506 285.25ZM204.26 286.136C203.715 286.136 203.233 285.999 202.815 285.723C202.398 285.445 202.071 285.053 201.835 284.547C201.599 284.038 201.482 283.438 201.482 282.744C201.482 282.057 201.599 281.46 201.835 280.955C202.071 280.449 202.399 280.058 202.82 279.783C203.24 279.507 203.726 279.369 204.277 279.369C204.703 279.369 205.04 279.44 205.287 279.582C205.537 279.722 205.727 279.881 205.858 280.06C205.992 280.236 206.095 280.381 206.169 280.494H206.254V277.273H207.26V286H206.288V284.994H206.169C206.095 285.114 205.99 285.264 205.854 285.446C205.717 285.625 205.523 285.786 205.27 285.928C205.017 286.067 204.68 286.136 204.26 286.136ZM204.396 285.233C204.8 285.233 205.141 285.128 205.419 284.918C205.698 284.705 205.909 284.411 206.054 284.036C206.199 283.658 206.271 283.222 206.271 282.727C206.271 282.239 206.2 281.811 206.058 281.445C205.916 281.075 205.706 280.788 205.428 280.584C205.149 280.376 204.805 280.273 204.396 280.273C203.97 280.273 203.615 280.382 203.331 280.601C203.05 280.817 202.838 281.111 202.696 281.483C202.557 281.852 202.487 282.267 202.487 282.727C202.487 283.193 202.558 283.616 202.7 283.997C202.845 284.375 203.058 284.676 203.34 284.901C203.624 285.122 203.976 285.233 204.396 285.233ZM212.501 286.136C211.91 286.136 211.391 285.996 210.945 285.714C210.502 285.433 210.155 285.04 209.905 284.534C209.658 284.028 209.535 283.437 209.535 282.761C209.535 282.08 209.658 281.484 209.905 280.976C210.155 280.467 210.502 280.072 210.945 279.791C211.391 279.51 211.91 279.369 212.501 279.369C213.092 279.369 213.609 279.51 214.052 279.791C214.498 280.072 214.844 280.467 215.092 280.976C215.342 281.484 215.467 282.08 215.467 282.761C215.467 283.437 215.342 284.028 215.092 284.534C214.844 285.04 214.498 285.433 214.052 285.714C213.609 285.996 213.092 286.136 212.501 286.136ZM212.501 285.233C212.95 285.233 213.319 285.118 213.609 284.888C213.898 284.658 214.113 284.355 214.252 283.98C214.391 283.605 214.461 283.199 214.461 282.761C214.461 282.324 214.391 281.916 214.252 281.538C214.113 281.161 213.898 280.855 213.609 280.622C213.319 280.389 212.95 280.273 212.501 280.273C212.052 280.273 211.682 280.389 211.393 280.622C211.103 280.855 210.888 281.161 210.749 281.538C210.61 281.916 210.54 282.324 210.54 282.761C210.54 283.199 210.61 283.605 210.749 283.98C210.888 284.355 211.103 284.658 211.393 284.888C211.682 285.118 212.052 285.233 212.501 285.233ZM217.602 286V279.455H218.573V280.443H218.641C218.761 280.119 218.977 279.857 219.289 279.655C219.602 279.453 219.954 279.352 220.346 279.352C220.42 279.352 220.512 279.354 220.623 279.357C220.734 279.359 220.818 279.364 220.874 279.369V280.392C220.84 280.384 220.762 280.371 220.64 280.354C220.521 280.334 220.394 280.324 220.261 280.324C219.943 280.324 219.659 280.391 219.409 280.524C219.161 280.655 218.965 280.837 218.82 281.07C218.678 281.3 218.607 281.562 218.607 281.858V286H217.602ZM225.212 286.136C224.581 286.136 224.037 285.997 223.58 285.719C223.125 285.438 222.774 285.045 222.527 284.543C222.283 284.037 222.161 283.449 222.161 282.778C222.161 282.108 222.283 281.517 222.527 281.006C222.774 280.491 223.118 280.091 223.558 279.804C224.001 279.514 224.518 279.369 225.109 279.369C225.45 279.369 225.787 279.426 226.119 279.54C226.452 279.653 226.754 279.838 227.027 280.094C227.3 280.347 227.517 280.682 227.679 281.099C227.841 281.517 227.922 282.031 227.922 282.642V283.068H222.876V282.199H226.899C226.899 281.83 226.825 281.5 226.678 281.21C226.533 280.92 226.325 280.692 226.055 280.524C225.788 280.357 225.473 280.273 225.109 280.273C224.709 280.273 224.362 280.372 224.07 280.571C223.78 280.767 223.557 281.023 223.401 281.338C223.244 281.653 223.166 281.991 223.166 282.352V282.932C223.166 283.426 223.251 283.845 223.422 284.189C223.595 284.53 223.835 284.79 224.142 284.969C224.449 285.145 224.805 285.233 225.212 285.233C225.476 285.233 225.714 285.196 225.928 285.122C226.143 285.045 226.33 284.932 226.486 284.781C226.642 284.628 226.763 284.437 226.848 284.21L227.82 284.483C227.717 284.812 227.545 285.102 227.304 285.352C227.063 285.599 226.764 285.793 226.409 285.932C226.054 286.068 225.655 286.136 225.212 286.136ZM234.688 280.92L233.785 281.176C233.728 281.026 233.644 280.879 233.533 280.737C233.425 280.592 233.278 280.473 233.09 280.379C232.903 280.286 232.663 280.239 232.37 280.239C231.969 280.239 231.636 280.331 231.368 280.516C231.104 280.697 230.972 280.929 230.972 281.21C230.972 281.46 231.063 281.658 231.245 281.803C231.427 281.947 231.711 282.068 232.097 282.165L233.069 282.403C233.654 282.545 234.09 282.763 234.377 283.055C234.664 283.345 234.807 283.719 234.807 284.176C234.807 284.551 234.699 284.886 234.484 285.182C234.27 285.477 233.972 285.71 233.589 285.881C233.205 286.051 232.759 286.136 232.251 286.136C231.583 286.136 231.03 285.991 230.593 285.702C230.155 285.412 229.878 284.989 229.762 284.432L230.716 284.193C230.807 284.545 230.979 284.81 231.232 284.986C231.488 285.162 231.822 285.25 232.234 285.25C232.702 285.25 233.074 285.151 233.35 284.952C233.628 284.75 233.768 284.509 233.768 284.227C233.768 284 233.688 283.81 233.529 283.656C233.37 283.5 233.126 283.384 232.796 283.307L231.705 283.051C231.106 282.909 230.665 282.689 230.384 282.391C230.106 282.089 229.966 281.713 229.966 281.261C229.966 280.892 230.07 280.565 230.278 280.281C230.488 279.997 230.773 279.774 231.134 279.612C231.498 279.45 231.91 279.369 232.37 279.369C233.018 279.369 233.526 279.511 233.895 279.795C234.268 280.08 234.532 280.455 234.688 280.92ZM242.362 274.46V288.812H241.51V274.46H242.362ZM249.533 286V277.273H252.585C253.192 277.273 253.694 277.378 254.089 277.588C254.484 277.795 254.778 278.075 254.971 278.428C255.164 278.777 255.261 279.165 255.261 279.591C255.261 279.966 255.194 280.276 255.06 280.52C254.93 280.764 254.756 280.957 254.54 281.099C254.327 281.241 254.096 281.347 253.846 281.415V281.5C254.113 281.517 254.381 281.611 254.651 281.781C254.921 281.952 255.147 282.196 255.329 282.514C255.511 282.832 255.602 283.222 255.602 283.682C255.602 284.119 255.502 284.513 255.303 284.862C255.104 285.212 254.79 285.489 254.362 285.693C253.933 285.898 253.374 286 252.687 286H249.533ZM250.59 285.062H252.687C253.377 285.062 253.867 284.929 254.157 284.662C254.45 284.392 254.596 284.065 254.596 283.682C254.596 283.386 254.521 283.114 254.37 282.864C254.219 282.611 254.005 282.409 253.727 282.259C253.448 282.105 253.119 282.028 252.738 282.028H250.59V285.062ZM250.59 281.108H252.55C252.869 281.108 253.156 281.045 253.411 280.92C253.67 280.795 253.874 280.619 254.025 280.392C254.178 280.165 254.255 279.898 254.255 279.591C254.255 279.207 254.121 278.882 253.854 278.615C253.587 278.345 253.164 278.21 252.585 278.21H250.59V281.108ZM259.728 286.153C259.313 286.153 258.937 286.075 258.599 285.919C258.261 285.76 257.992 285.531 257.793 285.233C257.594 284.932 257.495 284.568 257.495 284.142C257.495 283.767 257.569 283.463 257.716 283.23C257.864 282.994 258.062 282.81 258.309 282.676C258.556 282.543 258.829 282.443 259.127 282.378C259.428 282.31 259.731 282.256 260.035 282.216C260.432 282.165 260.755 282.126 261.002 282.101C261.252 282.072 261.434 282.026 261.547 281.96C261.664 281.895 261.722 281.781 261.722 281.619V281.585C261.722 281.165 261.607 280.838 261.377 280.605C261.15 280.372 260.805 280.256 260.341 280.256C259.861 280.256 259.485 280.361 259.212 280.571C258.939 280.781 258.748 281.006 258.637 281.244L257.682 280.903C257.853 280.506 258.08 280.196 258.364 279.974C258.651 279.75 258.964 279.594 259.302 279.506C259.643 279.415 259.978 279.369 260.307 279.369C260.518 279.369 260.759 279.395 261.032 279.446C261.307 279.494 261.573 279.595 261.829 279.749C262.087 279.902 262.302 280.134 262.472 280.443C262.643 280.753 262.728 281.168 262.728 281.688V286H261.722V285.114H261.671C261.603 285.256 261.489 285.408 261.33 285.57C261.171 285.732 260.959 285.869 260.695 285.983C260.431 286.097 260.109 286.153 259.728 286.153ZM259.881 285.25C260.279 285.25 260.614 285.172 260.887 285.016C261.163 284.859 261.37 284.658 261.509 284.411C261.651 284.163 261.722 283.903 261.722 283.631V282.71C261.68 282.761 261.586 282.808 261.441 282.851C261.299 282.891 261.134 282.926 260.947 282.957C260.762 282.986 260.582 283.011 260.405 283.034C260.232 283.054 260.091 283.071 259.984 283.085C259.722 283.119 259.478 283.175 259.251 283.251C259.026 283.325 258.844 283.437 258.705 283.588C258.569 283.736 258.501 283.937 258.501 284.193C258.501 284.543 258.63 284.807 258.888 284.986C259.15 285.162 259.481 285.25 259.881 285.25ZM266.169 282.062V286H265.163V279.455H266.135V280.477H266.22C266.374 280.145 266.607 279.878 266.919 279.676C267.232 279.472 267.635 279.369 268.129 279.369C268.573 279.369 268.96 279.46 269.293 279.642C269.625 279.821 269.884 280.094 270.068 280.46C270.253 280.824 270.345 281.284 270.345 281.841V286H269.34V281.909C269.34 281.395 269.206 280.994 268.939 280.707C268.672 280.418 268.305 280.273 267.84 280.273C267.519 280.273 267.232 280.342 266.979 280.482C266.729 280.621 266.531 280.824 266.386 281.091C266.242 281.358 266.169 281.682 266.169 282.062ZM273.789 282.062V286H272.783V279.455H273.755V280.477H273.84C273.993 280.145 274.226 279.878 274.539 279.676C274.851 279.472 275.255 279.369 275.749 279.369C276.192 279.369 276.58 279.46 276.912 279.642C277.245 279.821 277.503 280.094 277.688 280.46C277.872 280.824 277.965 281.284 277.965 281.841V286H276.959V281.909C276.959 281.395 276.826 280.994 276.559 280.707C276.291 280.418 275.925 280.273 275.459 280.273C275.138 280.273 274.851 280.342 274.598 280.482C274.348 280.621 274.151 280.824 274.006 281.091C273.861 281.358 273.789 281.682 273.789 282.062ZM283.147 286.136C282.516 286.136 281.972 285.997 281.515 285.719C281.06 285.438 280.709 285.045 280.462 284.543C280.218 284.037 280.096 283.449 280.096 282.778C280.096 282.108 280.218 281.517 280.462 281.006C280.709 280.491 281.053 280.091 281.493 279.804C281.937 279.514 282.454 279.369 283.045 279.369C283.385 279.369 283.722 279.426 284.054 279.54C284.387 279.653 284.689 279.838 284.962 280.094C285.235 280.347 285.452 280.682 285.614 281.099C285.776 281.517 285.857 282.031 285.857 282.642V283.068H280.812V282.199H284.834C284.834 281.83 284.76 281.5 284.613 281.21C284.468 280.92 284.26 280.692 283.991 280.524C283.724 280.357 283.408 280.273 283.045 280.273C282.644 280.273 282.297 280.372 282.005 280.571C281.715 280.767 281.492 281.023 281.336 281.338C281.179 281.653 281.101 281.991 281.101 282.352V282.932C281.101 283.426 281.187 283.845 281.357 284.189C281.53 284.53 281.77 284.79 282.077 284.969C282.384 285.145 282.741 285.233 283.147 285.233C283.411 285.233 283.65 285.196 283.863 285.122C284.079 285.045 284.265 284.932 284.421 284.781C284.577 284.628 284.698 284.437 284.783 284.21L285.755 284.483C285.652 284.812 285.481 285.102 285.239 285.352C284.998 285.599 284.699 285.793 284.344 285.932C283.989 286.068 283.59 286.136 283.147 286.136ZM287.987 286V279.455H288.958V280.443H289.027C289.146 280.119 289.362 279.857 289.674 279.655C289.987 279.453 290.339 279.352 290.731 279.352C290.805 279.352 290.897 279.354 291.008 279.357C291.119 279.359 291.203 279.364 291.26 279.369V280.392C291.225 280.384 291.147 280.371 291.025 280.354C290.906 280.334 290.779 280.324 290.646 280.324C290.328 280.324 290.044 280.391 289.794 280.524C289.547 280.655 289.35 280.837 289.206 281.07C289.064 281.3 288.993 281.562 288.993 281.858V286H287.987ZM297.688 280.92L296.785 281.176C296.728 281.026 296.644 280.879 296.533 280.737C296.425 280.592 296.278 280.473 296.09 280.379C295.903 280.286 295.663 280.239 295.37 280.239C294.969 280.239 294.636 280.331 294.368 280.516C294.104 280.697 293.972 280.929 293.972 281.21C293.972 281.46 294.063 281.658 294.245 281.803C294.427 281.947 294.711 282.068 295.097 282.165L296.069 282.403C296.654 282.545 297.09 282.763 297.377 283.055C297.664 283.345 297.807 283.719 297.807 284.176C297.807 284.551 297.699 284.886 297.484 285.182C297.27 285.477 296.972 285.71 296.589 285.881C296.205 286.051 295.759 286.136 295.251 286.136C294.583 286.136 294.03 285.991 293.593 285.702C293.155 285.412 292.878 284.989 292.762 284.432L293.716 284.193C293.807 284.545 293.979 284.81 294.232 284.986C294.488 285.162 294.822 285.25 295.234 285.25C295.702 285.25 296.074 285.151 296.35 284.952C296.628 284.75 296.768 284.509 296.768 284.227C296.768 284 296.688 283.81 296.529 283.656C296.37 283.5 296.126 283.384 295.796 283.307L294.705 283.051C294.106 282.909 293.665 282.689 293.384 282.391C293.106 282.089 292.966 281.713 292.966 281.261C292.966 280.892 293.07 280.565 293.278 280.281C293.488 279.997 293.773 279.774 294.134 279.612C294.498 279.45 294.91 279.369 295.37 279.369C296.018 279.369 296.526 279.511 296.895 279.795C297.268 280.08 297.532 280.455 297.688 280.92ZM305.362 274.46V288.812H304.51V274.46H305.362ZM312.533 286V277.273H315.585C316.192 277.273 316.694 277.378 317.089 277.588C317.484 277.795 317.778 278.075 317.971 278.428C318.164 278.777 318.261 279.165 318.261 279.591C318.261 279.966 318.194 280.276 318.06 280.52C317.93 280.764 317.756 280.957 317.54 281.099C317.327 281.241 317.096 281.347 316.846 281.415V281.5C317.113 281.517 317.381 281.611 317.651 281.781C317.921 281.952 318.147 282.196 318.329 282.514C318.511 282.832 318.602 283.222 318.602 283.682C318.602 284.119 318.502 284.513 318.303 284.862C318.104 285.212 317.79 285.489 317.362 285.693C316.933 285.898 316.374 286 315.687 286H312.533ZM313.59 285.062H315.687C316.377 285.062 316.867 284.929 317.157 284.662C317.45 284.392 317.596 284.065 317.596 283.682C317.596 283.386 317.521 283.114 317.37 282.864C317.219 282.611 317.005 282.409 316.727 282.259C316.448 282.105 316.119 282.028 315.738 282.028H313.59V285.062ZM313.59 281.108H315.55C315.869 281.108 316.156 281.045 316.411 280.92C316.67 280.795 316.874 280.619 317.025 280.392C317.178 280.165 317.255 279.898 317.255 279.591C317.255 279.207 317.121 278.882 316.854 278.615C316.587 278.345 316.164 278.21 315.585 278.21H313.59V281.108ZM323.461 286.136C322.87 286.136 322.351 285.996 321.905 285.714C321.462 285.433 321.116 285.04 320.866 284.534C320.618 284.028 320.495 283.437 320.495 282.761C320.495 282.08 320.618 281.484 320.866 280.976C321.116 280.467 321.462 280.072 321.905 279.791C322.351 279.51 322.87 279.369 323.461 279.369C324.052 279.369 324.569 279.51 325.012 279.791C325.458 280.072 325.805 280.467 326.052 280.976C326.302 281.484 326.427 282.08 326.427 282.761C326.427 283.437 326.302 284.028 326.052 284.534C325.805 285.04 325.458 285.433 325.012 285.714C324.569 285.996 324.052 286.136 323.461 286.136ZM323.461 285.233C323.91 285.233 324.279 285.118 324.569 284.888C324.859 284.658 325.073 284.355 325.212 283.98C325.351 283.605 325.421 283.199 325.421 282.761C325.421 282.324 325.351 281.916 325.212 281.538C325.073 281.161 324.859 280.855 324.569 280.622C324.279 280.389 323.91 280.273 323.461 280.273C323.012 280.273 322.643 280.389 322.353 280.622C322.063 280.855 321.849 281.161 321.709 281.538C321.57 281.916 321.501 282.324 321.501 282.761C321.501 283.199 321.57 283.605 321.709 283.98C321.849 284.355 322.063 284.658 322.353 284.888C322.643 285.118 323.012 285.233 323.461 285.233ZM331.221 286.136C330.63 286.136 330.112 285.996 329.666 285.714C329.222 285.433 328.876 285.04 328.626 284.534C328.379 284.028 328.255 283.437 328.255 282.761C328.255 282.08 328.379 281.484 328.626 280.976C328.876 280.467 329.222 280.072 329.666 279.791C330.112 279.51 330.63 279.369 331.221 279.369C331.812 279.369 332.329 279.51 332.772 279.791C333.218 280.072 333.565 280.467 333.812 280.976C334.062 281.484 334.187 282.08 334.187 282.761C334.187 283.437 334.062 284.028 333.812 284.534C333.565 285.04 333.218 285.433 332.772 285.714C332.329 285.996 331.812 286.136 331.221 286.136ZM331.221 285.233C331.67 285.233 332.039 285.118 332.329 284.888C332.619 284.658 332.833 284.355 332.972 283.98C333.112 283.605 333.181 283.199 333.181 282.761C333.181 282.324 333.112 281.916 332.972 281.538C332.833 281.161 332.619 280.855 332.329 280.622C332.039 280.389 331.67 280.273 331.221 280.273C330.772 280.273 330.403 280.389 330.113 280.622C329.823 280.855 329.609 281.161 329.47 281.538C329.33 281.916 329.261 282.324 329.261 282.761C329.261 283.199 329.33 283.605 329.47 283.98C329.609 284.355 329.823 284.658 330.113 284.888C330.403 285.118 330.772 285.233 331.221 285.233ZM337.26 283.614L337.242 282.369H337.447L340.311 279.455H341.555L338.504 282.54H338.419L337.26 283.614ZM336.322 286V277.273H337.328V286H336.322ZM340.481 286L337.924 282.761L338.64 282.062L341.76 286H340.481ZM350.271 279.455V280.307H346.879V279.455H350.271ZM347.868 277.886H348.873V284.125C348.873 284.409 348.914 284.622 348.997 284.764C349.082 284.903 349.19 284.997 349.321 285.045C349.454 285.091 349.595 285.114 349.743 285.114C349.853 285.114 349.944 285.108 350.015 285.097C350.086 285.082 350.143 285.071 350.186 285.062L350.39 285.966C350.322 285.991 350.227 286.017 350.105 286.043C349.983 286.071 349.828 286.085 349.64 286.085C349.356 286.085 349.078 286.024 348.805 285.902C348.535 285.78 348.311 285.594 348.132 285.344C347.956 285.094 347.868 284.778 347.868 284.398V277.886ZM352.384 286V279.455H353.355V280.443H353.424C353.543 280.119 353.759 279.857 354.071 279.655C354.384 279.453 354.736 279.352 355.128 279.352C355.202 279.352 355.294 279.354 355.405 279.357C355.516 279.359 355.6 279.364 355.656 279.369V280.392C355.622 280.384 355.544 280.371 355.422 280.354C355.303 280.334 355.176 280.324 355.043 280.324C354.725 280.324 354.441 280.391 354.191 280.524C353.943 280.655 353.747 280.837 353.602 281.07C353.46 281.3 353.389 281.562 353.389 281.858V286H352.384ZM359.375 286.153C358.96 286.153 358.584 286.075 358.245 285.919C357.907 285.76 357.639 285.531 357.44 285.233C357.241 284.932 357.142 284.568 357.142 284.142C357.142 283.767 357.216 283.463 357.363 283.23C357.511 282.994 357.709 282.81 357.956 282.676C358.203 282.543 358.476 282.443 358.774 282.378C359.075 282.31 359.378 282.256 359.682 282.216C360.079 282.165 360.402 282.126 360.649 282.101C360.899 282.072 361.081 282.026 361.194 281.96C361.311 281.895 361.369 281.781 361.369 281.619V281.585C361.369 281.165 361.254 280.838 361.024 280.605C360.797 280.372 360.451 280.256 359.988 280.256C359.508 280.256 359.132 280.361 358.859 280.571C358.586 280.781 358.395 281.006 358.284 281.244L357.329 280.903C357.5 280.506 357.727 280.196 358.011 279.974C358.298 279.75 358.611 279.594 358.949 279.506C359.29 279.415 359.625 279.369 359.954 279.369C360.165 279.369 360.406 279.395 360.679 279.446C360.954 279.494 361.22 279.595 361.476 279.749C361.734 279.902 361.949 280.134 362.119 280.443C362.29 280.753 362.375 281.168 362.375 281.688V286H361.369V285.114H361.318C361.25 285.256 361.136 285.408 360.977 285.57C360.818 285.732 360.606 285.869 360.342 285.983C360.078 286.097 359.755 286.153 359.375 286.153ZM359.528 285.25C359.926 285.25 360.261 285.172 360.534 285.016C360.809 284.859 361.017 284.658 361.156 284.411C361.298 284.163 361.369 283.903 361.369 283.631V282.71C361.326 282.761 361.233 282.808 361.088 282.851C360.946 282.891 360.781 282.926 360.593 282.957C360.409 282.986 360.228 283.011 360.052 283.034C359.879 283.054 359.738 283.071 359.63 283.085C359.369 283.119 359.125 283.175 358.897 283.251C358.673 283.325 358.491 283.437 358.352 283.588C358.216 283.736 358.147 283.937 358.147 284.193C358.147 284.543 358.277 284.807 358.535 284.986C358.797 285.162 359.128 285.25 359.528 285.25ZM364.81 286V279.455H365.816V286H364.81ZM365.322 278.364C365.126 278.364 364.957 278.297 364.815 278.163C364.675 278.03 364.606 277.869 364.606 277.682C364.606 277.494 364.675 277.334 364.815 277.2C364.957 277.067 365.126 277 365.322 277C365.518 277 365.685 277.067 365.824 277.2C365.967 277.334 366.038 277.494 366.038 277.682C366.038 277.869 365.967 278.03 365.824 278.163C365.685 278.297 365.518 278.364 365.322 278.364ZM369.264 277.273V286H368.258V277.273H369.264ZM374.45 286.136C373.819 286.136 373.275 285.997 372.818 285.719C372.363 285.438 372.012 285.045 371.765 284.543C371.521 284.037 371.399 283.449 371.399 282.778C371.399 282.108 371.521 281.517 371.765 281.006C372.012 280.491 372.356 280.091 372.797 279.804C373.24 279.514 373.757 279.369 374.348 279.369C374.689 279.369 375.025 279.426 375.358 279.54C375.69 279.653 375.993 279.838 376.265 280.094C376.538 280.347 376.755 280.682 376.917 281.099C377.079 281.517 377.16 282.031 377.16 282.642V283.068H372.115V282.199H376.137C376.137 281.83 376.064 281.5 375.916 281.21C375.771 280.92 375.564 280.692 375.294 280.524C375.027 280.357 374.711 280.273 374.348 280.273C373.947 280.273 373.6 280.372 373.308 280.571C373.018 280.767 372.795 281.023 372.639 281.338C372.483 281.653 372.404 281.991 372.404 282.352V282.932C372.404 283.426 372.49 283.845 372.66 284.189C372.833 284.53 373.074 284.79 373.38 284.969C373.687 285.145 374.044 285.233 374.45 285.233C374.714 285.233 374.953 285.196 375.166 285.122C375.382 285.045 375.568 284.932 375.724 284.781C375.88 284.628 376.001 284.437 376.086 284.21L377.058 284.483C376.956 284.812 376.784 285.102 376.542 285.352C376.301 285.599 376.002 285.793 375.647 285.932C375.292 286.068 374.893 286.136 374.45 286.136ZM379.29 286V279.455H380.262V280.443H380.33C380.449 280.119 380.665 279.857 380.977 279.655C381.29 279.453 381.642 279.352 382.034 279.352C382.108 279.352 382.201 279.354 382.311 279.357C382.422 279.359 382.506 279.364 382.563 279.369V280.392C382.529 280.384 382.451 280.371 382.328 280.354C382.209 280.334 382.083 280.324 381.949 280.324C381.631 280.324 381.347 280.391 381.097 280.524C380.85 280.655 380.654 280.837 380.509 281.07C380.367 281.3 380.296 281.562 380.296 281.858V286H379.29ZM388.991 280.92L388.088 281.176C388.031 281.026 387.947 280.879 387.836 280.737C387.728 280.592 387.581 280.473 387.393 280.379C387.206 280.286 386.966 280.239 386.673 280.239C386.272 280.239 385.939 280.331 385.672 280.516C385.407 280.697 385.275 280.929 385.275 281.21C385.275 281.46 385.366 281.658 385.548 281.803C385.73 281.947 386.014 282.068 386.4 282.165L387.372 282.403C387.957 282.545 388.393 282.763 388.68 283.055C388.967 283.345 389.111 283.719 389.111 284.176C389.111 284.551 389.003 284.886 388.787 285.182C388.574 285.477 388.275 285.71 387.892 285.881C387.508 286.051 387.062 286.136 386.554 286.136C385.886 286.136 385.334 285.991 384.896 285.702C384.459 285.412 384.182 284.989 384.065 284.432L385.02 284.193C385.111 284.545 385.282 284.81 385.535 284.986C385.791 285.162 386.125 285.25 386.537 285.25C387.005 285.25 387.378 285.151 387.653 284.952C387.932 284.75 388.071 284.509 388.071 284.227C388.071 284 387.991 283.81 387.832 283.656C387.673 283.5 387.429 283.384 387.099 283.307L386.008 283.051C385.409 282.909 384.968 282.689 384.687 282.391C384.409 282.089 384.27 281.713 384.27 281.261C384.27 280.892 384.373 280.565 384.581 280.281C384.791 279.997 385.076 279.774 385.437 279.612C385.801 279.45 386.213 279.369 386.673 279.369C387.321 279.369 387.829 279.511 388.199 279.795C388.571 280.08 388.835 280.455 388.991 280.92ZM396.665 274.46V288.812H395.813V274.46H396.665ZM406.53 286H403.837V277.273H406.649C407.496 277.273 408.22 277.447 408.822 277.797C409.425 278.143 409.886 278.642 410.207 279.293C410.528 279.94 410.689 280.716 410.689 281.619C410.689 282.528 410.527 283.311 410.203 283.967C409.879 284.621 409.408 285.124 408.788 285.476C408.169 285.825 407.416 286 406.53 286ZM404.893 285.062H406.462C407.183 285.062 407.781 284.923 408.256 284.645C408.73 284.366 409.084 283.97 409.317 283.456C409.55 282.942 409.666 282.33 409.666 281.619C409.666 280.915 409.551 280.308 409.321 279.8C409.091 279.288 408.747 278.896 408.29 278.624C407.832 278.348 407.263 278.21 406.581 278.21H404.893V285.062ZM412.925 286V279.455H413.931V286H412.925ZM413.437 278.364C413.24 278.364 413.071 278.297 412.929 278.163C412.79 278.03 412.721 277.869 412.721 277.682C412.721 277.494 412.79 277.334 412.929 277.2C413.071 277.067 413.24 277 413.437 277C413.633 277 413.8 277.067 413.939 277.2C414.081 277.334 414.152 277.494 414.152 277.682C414.152 277.869 414.081 278.03 413.939 278.163C413.8 278.297 413.633 278.364 413.437 278.364ZM418.299 286.153C417.884 286.153 417.508 286.075 417.17 285.919C416.832 285.76 416.563 285.531 416.364 285.233C416.165 284.932 416.066 284.568 416.066 284.142C416.066 283.767 416.14 283.463 416.288 283.23C416.435 282.994 416.633 282.81 416.88 282.676C417.127 282.543 417.4 282.443 417.698 282.378C417.999 282.31 418.302 282.256 418.606 282.216C419.003 282.165 419.326 282.126 419.573 282.101C419.823 282.072 420.005 282.026 420.119 281.96C420.235 281.895 420.293 281.781 420.293 281.619V281.585C420.293 281.165 420.178 280.838 419.948 280.605C419.721 280.372 419.376 280.256 418.913 280.256C418.432 280.256 418.056 280.361 417.783 280.571C417.511 280.781 417.319 281.006 417.208 281.244L416.253 280.903C416.424 280.506 416.651 280.196 416.935 279.974C417.222 279.75 417.535 279.594 417.873 279.506C418.214 279.415 418.549 279.369 418.878 279.369C419.089 279.369 419.33 279.395 419.603 279.446C419.878 279.494 420.144 279.595 420.4 279.749C420.658 279.902 420.873 280.134 421.043 280.443C421.214 280.753 421.299 281.168 421.299 281.688V286H420.293V285.114H420.242C420.174 285.256 420.06 285.408 419.901 285.57C419.742 285.732 419.53 285.869 419.266 285.983C419.002 286.097 418.68 286.153 418.299 286.153ZM418.452 285.25C418.85 285.25 419.185 285.172 419.458 285.016C419.734 284.859 419.941 284.658 420.08 284.411C420.222 284.163 420.293 283.903 420.293 283.631V282.71C420.251 282.761 420.157 282.808 420.012 282.851C419.87 282.891 419.705 282.926 419.518 282.957C419.333 282.986 419.153 283.011 418.976 283.034C418.803 283.054 418.663 283.071 418.555 283.085C418.293 283.119 418.049 283.175 417.822 283.251C417.597 283.325 417.415 283.437 417.276 283.588C417.14 283.736 417.072 283.937 417.072 284.193C417.072 284.543 417.201 284.807 417.459 284.986C417.721 285.162 418.052 285.25 418.452 285.25ZM426.377 288.591C425.891 288.591 425.473 288.528 425.124 288.403C424.774 288.281 424.483 288.119 424.25 287.918C424.02 287.719 423.837 287.506 423.7 287.278L424.502 286.716C424.592 286.835 424.708 286.972 424.847 287.125C424.986 287.281 425.176 287.416 425.418 287.53C425.662 287.646 425.982 287.705 426.377 287.705C426.905 287.705 427.341 287.577 427.685 287.321C428.029 287.065 428.2 286.665 428.2 286.119V284.79H428.115C428.041 284.909 427.936 285.057 427.8 285.233C427.666 285.406 427.473 285.561 427.22 285.697C426.97 285.831 426.632 285.898 426.206 285.898C425.678 285.898 425.203 285.773 424.783 285.523C424.365 285.273 424.034 284.909 423.79 284.432C423.548 283.955 423.428 283.375 423.428 282.693C423.428 282.023 423.546 281.439 423.781 280.942C424.017 280.442 424.345 280.055 424.766 279.783C425.186 279.507 425.672 279.369 426.223 279.369C426.649 279.369 426.987 279.44 427.237 279.582C427.49 279.722 427.683 279.881 427.817 280.06C427.953 280.236 428.058 280.381 428.132 280.494H428.235V279.455H429.206V286.188C429.206 286.75 429.078 287.207 428.823 287.56C428.57 287.915 428.229 288.175 427.8 288.339C427.374 288.507 426.899 288.591 426.377 288.591ZM426.342 284.994C426.746 284.994 427.087 284.902 427.365 284.717C427.644 284.533 427.855 284.267 428 283.92C428.145 283.574 428.217 283.159 428.217 282.676C428.217 282.205 428.146 281.788 428.004 281.428C427.862 281.067 427.652 280.784 427.374 280.58C427.095 280.375 426.752 280.273 426.342 280.273C425.916 280.273 425.561 280.381 425.277 280.597C424.996 280.812 424.784 281.102 424.642 281.466C424.503 281.83 424.433 282.233 424.433 282.676C424.433 283.131 424.504 283.533 424.646 283.882C424.791 284.229 425.004 284.501 425.286 284.7C425.57 284.896 425.922 284.994 426.342 284.994ZM431.647 286V279.455H432.619V280.443H432.687C432.806 280.119 433.022 279.857 433.335 279.655C433.647 279.453 433.999 279.352 434.391 279.352C434.465 279.352 434.558 279.354 434.668 279.357C434.779 279.359 434.863 279.364 434.92 279.369V280.392C434.886 280.384 434.808 280.371 434.685 280.354C434.566 280.334 434.44 280.324 434.306 280.324C433.988 280.324 433.704 280.391 433.454 280.524C433.207 280.655 433.011 280.837 432.866 281.07C432.724 281.3 432.653 281.562 432.653 281.858V286H431.647ZM438.638 286.153C438.223 286.153 437.847 286.075 437.509 285.919C437.171 285.76 436.902 285.531 436.703 285.233C436.504 284.932 436.405 284.568 436.405 284.142C436.405 283.767 436.479 283.463 436.627 283.23C436.774 282.994 436.972 282.81 437.219 282.676C437.466 282.543 437.739 282.443 438.037 282.378C438.338 282.31 438.641 282.256 438.945 282.216C439.343 282.165 439.665 282.126 439.912 282.101C440.162 282.072 440.344 282.026 440.458 281.96C440.574 281.895 440.632 281.781 440.632 281.619V281.585C440.632 281.165 440.517 280.838 440.287 280.605C440.06 280.372 439.715 280.256 439.252 280.256C438.772 280.256 438.395 280.361 438.122 280.571C437.85 280.781 437.658 281.006 437.547 281.244L436.593 280.903C436.763 280.506 436.99 280.196 437.274 279.974C437.561 279.75 437.874 279.594 438.212 279.506C438.553 279.415 438.888 279.369 439.218 279.369C439.428 279.369 439.669 279.395 439.942 279.446C440.218 279.494 440.483 279.595 440.739 279.749C440.997 279.902 441.212 280.134 441.382 280.443C441.553 280.753 441.638 281.168 441.638 281.688V286H440.632V285.114H440.581C440.513 285.256 440.399 285.408 440.24 285.57C440.081 285.732 439.87 285.869 439.605 285.983C439.341 286.097 439.019 286.153 438.638 286.153ZM438.791 285.25C439.189 285.25 439.524 285.172 439.797 285.016C440.073 284.859 440.28 284.658 440.419 284.411C440.561 284.163 440.632 283.903 440.632 283.631V282.71C440.59 282.761 440.496 282.808 440.351 282.851C440.209 282.891 440.044 282.926 439.857 282.957C439.672 282.986 439.492 283.011 439.316 283.034C439.142 283.054 439.002 283.071 438.894 283.085C438.632 283.119 438.388 283.175 438.161 283.251C437.936 283.325 437.754 283.437 437.615 283.588C437.479 283.736 437.411 283.937 437.411 284.193C437.411 284.543 437.54 284.807 437.799 284.986C438.06 285.162 438.391 285.25 438.791 285.25ZM444.074 286V279.455H445.045V280.477H445.13C445.267 280.128 445.487 279.857 445.791 279.663C446.095 279.467 446.46 279.369 446.886 279.369C447.318 279.369 447.677 279.467 447.964 279.663C448.254 279.857 448.48 280.128 448.642 280.477H448.71C448.878 280.139 449.129 279.871 449.464 279.672C449.799 279.47 450.201 279.369 450.67 279.369C451.255 279.369 451.734 279.553 452.106 279.919C452.478 280.283 452.665 280.849 452.665 281.619V286H451.659V281.619C451.659 281.136 451.527 280.791 451.263 280.584C450.998 280.376 450.687 280.273 450.329 280.273C449.869 280.273 449.513 280.412 449.26 280.69C449.007 280.966 448.88 281.315 448.88 281.739V286H447.858V281.517C447.858 281.145 447.737 280.845 447.495 280.618C447.254 280.388 446.943 280.273 446.562 280.273C446.301 280.273 446.057 280.342 445.829 280.482C445.605 280.621 445.423 280.814 445.284 281.061C445.147 281.305 445.079 281.588 445.079 281.909V286H444.074ZM457.029 286.153C456.615 286.153 456.238 286.075 455.9 285.919C455.562 285.76 455.294 285.531 455.095 285.233C454.896 284.932 454.796 284.568 454.796 284.142C454.796 283.767 454.87 283.463 455.018 283.23C455.166 282.994 455.363 282.81 455.61 282.676C455.858 282.543 456.13 282.443 456.429 282.378C456.73 282.31 457.032 282.256 457.336 282.216C457.734 282.165 458.056 282.126 458.304 282.101C458.554 282.072 458.735 282.026 458.849 281.96C458.965 281.895 459.024 281.781 459.024 281.619V281.585C459.024 281.165 458.909 280.838 458.679 280.605C458.451 280.372 458.106 280.256 457.643 280.256C457.163 280.256 456.786 280.361 456.514 280.571C456.241 280.781 456.049 281.006 455.938 281.244L454.984 280.903C455.154 280.506 455.382 280.196 455.666 279.974C455.953 279.75 456.265 279.594 456.603 279.506C456.944 279.415 457.279 279.369 457.609 279.369C457.819 279.369 458.061 279.395 458.333 279.446C458.609 279.494 458.875 279.595 459.13 279.749C459.389 279.902 459.603 280.134 459.774 280.443C459.944 280.753 460.029 281.168 460.029 281.688V286H459.024V285.114H458.973C458.904 285.256 458.791 285.408 458.632 285.57C458.473 285.732 458.261 285.869 457.997 285.983C457.733 286.097 457.41 286.153 457.029 286.153ZM457.183 285.25C457.581 285.25 457.916 285.172 458.188 285.016C458.464 284.859 458.671 284.658 458.811 284.411C458.953 284.163 459.024 283.903 459.024 283.631V282.71C458.981 282.761 458.887 282.808 458.742 282.851C458.6 282.891 458.436 282.926 458.248 282.957C458.063 282.986 457.883 283.011 457.707 283.034C457.534 283.054 457.393 283.071 457.285 283.085C457.024 283.119 456.779 283.175 456.552 283.251C456.328 283.325 456.146 283.437 456.007 283.588C455.87 283.736 455.802 283.937 455.802 284.193C455.802 284.543 455.931 284.807 456.19 284.986C456.451 285.162 456.782 285.25 457.183 285.25ZM465.124 286.136C464.51 286.136 463.982 285.991 463.539 285.702C463.096 285.412 462.755 285.013 462.516 284.504C462.277 283.996 462.158 283.415 462.158 282.761C462.158 282.097 462.28 281.51 462.525 281.001C462.772 280.49 463.116 280.091 463.556 279.804C463.999 279.514 464.516 279.369 465.107 279.369C465.567 279.369 465.982 279.455 466.351 279.625C466.721 279.795 467.023 280.034 467.259 280.341C467.495 280.648 467.641 281.006 467.698 281.415H466.692C466.616 281.116 466.445 280.852 466.181 280.622C465.92 280.389 465.567 280.273 465.124 280.273C464.732 280.273 464.388 280.375 464.093 280.58C463.8 280.781 463.572 281.067 463.407 281.436C463.245 281.803 463.164 282.233 463.164 282.727C463.164 283.233 463.243 283.673 463.402 284.048C463.564 284.423 463.792 284.714 464.084 284.922C464.38 285.129 464.726 285.233 465.124 285.233C465.385 285.233 465.623 285.188 465.836 285.097C466.049 285.006 466.229 284.875 466.377 284.705C466.525 284.534 466.63 284.33 466.692 284.091H467.698C467.641 284.477 467.5 284.825 467.276 285.135C467.054 285.442 466.76 285.686 466.394 285.868C466.03 286.047 465.607 286.136 465.124 286.136ZM464.647 285.966H465.482L465.414 286.307C465.635 286.341 465.839 286.433 466.023 286.584C466.208 286.737 466.3 286.98 466.3 287.312C466.3 287.679 466.148 287.977 465.844 288.207C465.543 288.44 465.099 288.557 464.51 288.557L464.476 287.892C464.741 287.892 464.959 287.849 465.133 287.764C465.309 287.682 465.397 287.543 465.397 287.347C465.397 287.151 465.324 287.017 465.179 286.946C465.035 286.875 464.8 286.827 464.476 286.801L464.647 285.966ZM471.694 286.153C471.279 286.153 470.903 286.075 470.565 285.919C470.227 285.76 469.958 285.531 469.76 285.233C469.561 284.932 469.461 284.568 469.461 284.142C469.461 283.767 469.535 283.463 469.683 283.23C469.831 282.994 470.028 282.81 470.275 282.676C470.522 282.543 470.795 282.443 471.093 282.378C471.395 282.31 471.697 282.256 472.001 282.216C472.399 282.165 472.721 282.126 472.968 282.101C473.218 282.072 473.4 282.026 473.514 281.96C473.63 281.895 473.689 281.781 473.689 281.619V281.585C473.689 281.165 473.574 280.838 473.343 280.605C473.116 280.372 472.771 280.256 472.308 280.256C471.828 280.256 471.451 280.361 471.179 280.571C470.906 280.781 470.714 281.006 470.603 281.244L469.649 280.903C469.819 280.506 470.047 280.196 470.331 279.974C470.618 279.75 470.93 279.594 471.268 279.506C471.609 279.415 471.944 279.369 472.274 279.369C472.484 279.369 472.725 279.395 472.998 279.446C473.274 279.494 473.539 279.595 473.795 279.749C474.054 279.902 474.268 280.134 474.439 280.443C474.609 280.753 474.694 281.168 474.694 281.688V286H473.689V285.114H473.637C473.569 285.256 473.456 285.408 473.297 285.57C473.137 285.732 472.926 285.869 472.662 285.983C472.397 286.097 472.075 286.153 471.694 286.153ZM471.848 285.25C472.245 285.25 472.581 285.172 472.853 285.016C473.129 284.859 473.336 284.658 473.475 284.411C473.618 284.163 473.689 283.903 473.689 283.631V282.71C473.646 282.761 473.552 282.808 473.407 282.851C473.265 282.891 473.1 282.926 472.913 282.957C472.728 282.986 472.548 283.011 472.372 283.034C472.199 283.054 472.058 283.071 471.95 283.085C471.689 283.119 471.444 283.175 471.217 283.251C470.993 283.325 470.811 283.437 470.672 283.588C470.535 283.736 470.467 283.937 470.467 284.193C470.467 284.543 470.596 284.807 470.855 284.986C471.116 285.162 471.447 285.25 471.848 285.25ZM471.029 278.67L470.245 278.636C470.245 278.202 470.369 277.847 470.616 277.571C470.866 277.293 471.174 277.153 471.541 277.153C471.703 277.153 471.846 277.182 471.971 277.239C472.096 277.293 472.216 277.355 472.329 277.426C472.443 277.497 472.559 277.561 472.679 277.618C472.801 277.672 472.939 277.699 473.092 277.699C473.254 277.699 473.39 277.636 473.501 277.511C473.615 277.384 473.672 277.23 473.672 277.051L474.439 277.119C474.439 277.562 474.314 277.915 474.064 278.176C473.816 278.437 473.51 278.568 473.143 278.568C472.947 278.568 472.785 278.541 472.657 278.487C472.529 278.43 472.416 278.366 472.316 278.295C472.217 278.224 472.112 278.162 472.001 278.108C471.89 278.051 471.754 278.023 471.592 278.023C471.43 278.023 471.295 278.087 471.187 278.214C471.082 278.339 471.029 278.491 471.029 278.67ZM479.789 286.136C479.198 286.136 478.68 285.996 478.234 285.714C477.79 285.433 477.444 285.04 477.194 284.534C476.947 284.028 476.823 283.437 476.823 282.761C476.823 282.08 476.947 281.484 477.194 280.976C477.444 280.467 477.79 280.072 478.234 279.791C478.68 279.51 479.198 279.369 479.789 279.369C480.38 279.369 480.897 279.51 481.34 279.791C481.786 280.072 482.133 280.467 482.38 280.976C482.63 281.484 482.755 282.08 482.755 282.761C482.755 283.437 482.63 284.028 482.38 284.534C482.133 285.04 481.786 285.433 481.34 285.714C480.897 285.996 480.38 286.136 479.789 286.136ZM479.789 285.233C480.238 285.233 480.607 285.118 480.897 284.888C481.187 284.658 481.401 284.355 481.54 283.98C481.68 283.605 481.749 283.199 481.749 282.761C481.749 282.324 481.68 281.916 481.54 281.538C481.401 281.161 481.187 280.855 480.897 280.622C480.607 280.389 480.238 280.273 479.789 280.273C479.34 280.273 478.971 280.389 478.681 280.622C478.391 280.855 478.177 281.161 478.038 281.538C477.898 281.916 477.829 282.324 477.829 282.761C477.829 283.199 477.898 283.605 478.038 283.98C478.177 284.355 478.391 284.658 478.681 284.888C478.971 285.118 479.34 285.233 479.789 285.233Z" fill="#262626"/>
<path d="M191.383 225.337C191.357 225.079 191.248 224.879 191.054 224.736C190.86 224.593 190.597 224.522 190.264 224.522C190.038 224.522 189.848 224.554 189.692 224.618C189.537 224.68 189.417 224.766 189.334 224.877C189.253 224.988 189.213 225.113 189.213 225.254C189.209 225.371 189.233 225.473 189.286 225.561C189.342 225.648 189.417 225.724 189.513 225.788C189.609 225.849 189.72 225.904 189.846 225.951C189.971 225.995 190.106 226.034 190.248 226.066L190.836 226.206C191.122 226.27 191.384 226.355 191.623 226.462C191.861 226.569 192.068 226.7 192.243 226.855C192.417 227.011 192.553 227.194 192.648 227.405C192.747 227.616 192.797 227.858 192.799 228.13C192.797 228.531 192.694 228.878 192.492 229.172C192.292 229.464 192.002 229.691 191.623 229.853C191.245 230.013 190.791 230.093 190.258 230.093C189.729 230.093 189.269 230.012 188.877 229.85C188.487 229.688 188.183 229.448 187.963 229.131C187.746 228.811 187.632 228.416 187.621 227.945H188.96C188.975 228.164 189.038 228.348 189.149 228.495C189.262 228.64 189.412 228.749 189.599 228.824C189.789 228.896 190.003 228.933 190.242 228.933C190.476 228.933 190.68 228.898 190.852 228.83C191.027 228.762 191.162 228.667 191.258 228.546C191.354 228.424 191.402 228.285 191.402 228.127C191.402 227.98 191.358 227.857 191.271 227.756C191.186 227.656 191.06 227.571 190.894 227.501C190.73 227.43 190.528 227.366 190.29 227.309L189.577 227.13C189.025 226.996 188.59 226.786 188.27 226.5C187.95 226.215 187.792 225.83 187.794 225.347C187.792 224.95 187.897 224.604 188.11 224.308C188.325 224.012 188.62 223.781 188.995 223.614C189.37 223.448 189.797 223.365 190.274 223.365C190.76 223.365 191.184 223.448 191.546 223.614C191.91 223.781 192.194 224.012 192.396 224.308C192.598 224.604 192.703 224.947 192.709 225.337H191.383ZM197.42 230V223.455H201.83V224.596H198.803V226.155H201.603V227.296H198.803V228.859H201.843V230H197.42ZM206.62 230V223.455H209.203C209.697 223.455 210.119 223.543 210.468 223.72C210.82 223.895 211.087 224.143 211.271 224.464C211.456 224.784 211.549 225.16 211.549 225.593C211.549 226.027 211.455 226.401 211.267 226.714C211.08 227.026 210.808 227.264 210.452 227.43C210.099 227.597 209.67 227.68 209.168 227.68H207.438V226.567H208.944C209.208 226.567 209.427 226.531 209.602 226.459C209.777 226.386 209.907 226.278 209.992 226.133C210.079 225.988 210.123 225.808 210.123 225.593C210.123 225.375 210.079 225.192 209.992 225.043C209.907 224.894 209.776 224.781 209.599 224.704C209.424 224.625 209.204 224.586 208.937 224.586H208.004V230H206.62ZM210.155 227.021L211.782 230H210.254L208.663 227.021H210.155ZM217.223 223.455L218.805 228.428H218.866L220.451 223.455H221.985L219.729 230H217.946L215.686 223.455H217.223ZM227.847 223.455V230H226.463V223.455H227.847ZM238.451 225.746H237.051C237.025 225.565 236.973 225.404 236.894 225.263C236.816 225.121 236.714 224.999 236.591 224.899C236.467 224.799 236.324 224.722 236.163 224.669C236.003 224.616 235.829 224.589 235.642 224.589C235.303 224.589 235.008 224.673 234.756 224.842C234.505 225.008 234.31 225.251 234.171 225.57C234.033 225.888 233.964 226.273 233.964 226.727C233.964 227.194 234.033 227.586 234.171 227.903C234.312 228.221 234.508 228.461 234.759 228.623C235.011 228.784 235.302 228.865 235.632 228.865C235.817 228.865 235.989 228.841 236.147 228.792C236.306 228.743 236.448 228.672 236.572 228.578C236.695 228.482 236.797 228.366 236.878 228.229C236.962 228.093 237.019 227.937 237.051 227.763L238.451 227.769C238.415 228.07 238.324 228.359 238.179 228.638C238.036 228.915 237.844 229.164 237.601 229.383C237.36 229.6 237.072 229.773 236.738 229.901C236.405 230.027 236.029 230.089 235.61 230.089C235.026 230.089 234.504 229.957 234.044 229.693C233.585 229.429 233.223 229.047 232.957 228.546C232.693 228.045 232.561 227.439 232.561 226.727C232.561 226.013 232.695 225.406 232.963 224.906C233.232 224.405 233.596 224.023 234.056 223.761C234.517 223.497 235.034 223.365 235.61 223.365C235.989 223.365 236.34 223.418 236.664 223.525C236.99 223.631 237.279 223.787 237.53 223.991C237.782 224.194 237.986 224.442 238.144 224.736C238.304 225.03 238.406 225.367 238.451 225.746ZM235.268 229.981H235.894L235.843 230.259C236.062 230.293 236.241 230.375 236.38 230.505C236.52 230.635 236.592 230.812 236.594 231.036C236.596 231.353 236.449 231.605 236.153 231.793C235.857 231.983 235.441 232.077 234.906 232.077L234.894 231.47C235.162 231.47 235.372 231.437 235.523 231.371C235.677 231.307 235.757 231.207 235.763 231.071C235.767 230.941 235.717 230.842 235.613 230.773C235.508 230.705 235.345 230.657 235.124 230.63L235.268 229.981ZM249.148 226.727C249.148 227.441 249.013 228.048 248.742 228.549C248.474 229.05 248.107 229.432 247.643 229.696C247.18 229.958 246.661 230.089 246.083 230.089C245.501 230.089 244.979 229.957 244.517 229.693C244.055 229.429 243.689 229.047 243.421 228.546C243.152 228.045 243.018 227.439 243.018 226.727C243.018 226.013 243.152 225.406 243.421 224.906C243.689 224.405 244.055 224.023 244.517 223.761C244.979 223.497 245.501 223.365 246.083 223.365C246.661 223.365 247.18 223.497 247.643 223.761C248.107 224.023 248.474 224.405 248.742 224.906C249.013 225.406 249.148 226.013 249.148 226.727ZM247.745 226.727C247.745 226.265 247.676 225.875 247.537 225.558C247.401 225.24 247.208 224.999 246.959 224.835C246.71 224.671 246.418 224.589 246.083 224.589C245.749 224.589 245.457 224.671 245.207 224.835C244.958 224.999 244.764 225.24 244.626 225.558C244.489 225.875 244.421 226.265 244.421 226.727C244.421 227.19 244.489 227.58 244.626 227.897C244.764 228.214 244.958 228.455 245.207 228.619C245.457 228.783 245.749 228.865 246.083 228.865C246.418 228.865 246.71 228.783 246.959 228.619C247.208 228.455 247.401 228.214 247.537 227.897C247.676 227.58 247.745 227.19 247.745 226.727ZM257.414 225.337C257.388 225.079 257.279 224.879 257.085 224.736C256.891 224.593 256.628 224.522 256.295 224.522C256.07 224.522 255.879 224.554 255.723 224.618C255.568 224.68 255.448 224.766 255.365 224.877C255.284 224.988 255.244 225.113 255.244 225.254C255.24 225.371 255.264 225.473 255.317 225.561C255.373 225.648 255.448 225.724 255.544 225.788C255.64 225.849 255.751 225.904 255.877 225.951C256.002 225.995 256.137 226.034 256.279 226.066L256.868 226.206C257.153 226.27 257.415 226.355 257.654 226.462C257.892 226.569 258.099 226.7 258.274 226.855C258.448 227.011 258.584 227.194 258.68 227.405C258.778 227.616 258.828 227.858 258.83 228.13C258.828 228.531 258.725 228.878 258.523 229.172C258.323 229.464 258.033 229.691 257.654 229.853C257.277 230.013 256.822 230.093 256.289 230.093C255.761 230.093 255.3 230.012 254.908 229.85C254.518 229.688 254.214 229.448 253.994 229.131C253.777 228.811 253.663 228.416 253.652 227.945H254.991C255.006 228.164 255.069 228.348 255.18 228.495C255.293 228.64 255.443 228.749 255.631 228.824C255.82 228.896 256.034 228.933 256.273 228.933C256.507 228.933 256.711 228.898 256.884 228.83C257.058 228.762 257.194 228.667 257.289 228.546C257.385 228.424 257.433 228.285 257.433 228.127C257.433 227.98 257.39 227.857 257.302 227.756C257.217 227.656 257.091 227.571 256.925 227.501C256.761 227.43 256.56 227.366 256.321 227.309L255.608 227.13C255.056 226.996 254.621 226.786 254.301 226.5C253.982 226.215 253.823 225.83 253.825 225.347C253.823 224.95 253.928 224.604 254.141 224.308C254.357 224.012 254.652 223.781 255.027 223.614C255.402 223.448 255.828 223.365 256.305 223.365C256.791 223.365 257.215 223.448 257.577 223.614C257.941 223.781 258.225 224.012 258.427 224.308C258.63 224.604 258.734 224.947 258.74 225.337H257.414ZM273.564 225.57C273.519 225.415 273.456 225.277 273.375 225.158C273.294 225.037 273.195 224.934 273.078 224.851C272.963 224.766 272.831 224.701 272.682 224.656C272.535 224.612 272.372 224.589 272.193 224.589C271.858 224.589 271.564 224.672 271.311 224.838C271.059 225.005 270.863 225.246 270.723 225.564C270.582 225.879 270.512 226.265 270.512 226.721C270.512 227.177 270.581 227.565 270.719 227.884C270.858 228.204 271.054 228.448 271.308 228.616C271.561 228.782 271.86 228.865 272.206 228.865C272.519 228.865 272.786 228.81 273.008 228.699C273.232 228.586 273.402 228.428 273.519 228.223C273.639 228.018 273.698 227.777 273.698 227.498L273.979 227.539H272.292V226.497H275.031V227.322C275.031 227.897 274.909 228.391 274.667 228.805C274.424 229.216 274.089 229.533 273.663 229.757C273.237 229.979 272.749 230.089 272.199 230.089C271.586 230.089 271.047 229.954 270.582 229.684C270.118 229.411 269.755 229.024 269.495 228.523C269.238 228.021 269.109 227.424 269.109 226.734C269.109 226.203 269.185 225.73 269.339 225.315C269.494 224.897 269.712 224.543 269.991 224.254C270.27 223.964 270.595 223.743 270.966 223.592C271.336 223.441 271.738 223.365 272.17 223.365C272.541 223.365 272.886 223.419 273.206 223.528C273.526 223.635 273.809 223.786 274.056 223.982C274.305 224.178 274.509 224.411 274.667 224.682C274.824 224.95 274.925 225.246 274.97 225.57H273.564ZM279.76 230V223.455H282.343C282.837 223.455 283.259 223.543 283.608 223.72C283.96 223.895 284.227 224.143 284.411 224.464C284.596 224.784 284.689 225.16 284.689 225.593C284.689 226.027 284.595 226.401 284.407 226.714C284.22 227.026 283.948 227.264 283.592 227.43C283.239 227.597 282.81 227.68 282.308 227.68H280.579V226.567H282.084C282.348 226.567 282.568 226.531 282.742 226.459C282.917 226.386 283.047 226.278 283.132 226.133C283.22 225.988 283.263 225.808 283.263 225.593C283.263 225.375 283.22 225.192 283.132 225.043C283.047 224.894 282.916 224.781 282.739 224.704C282.564 224.625 282.344 224.586 282.078 224.586H281.144V230H279.76ZM283.295 227.021L284.922 230H283.394L281.803 227.021H283.295ZM290.485 230H289.002L291.261 223.455H293.045L295.301 230H293.818L292.179 224.95H292.128L290.485 230ZM290.392 227.427H293.895V228.507H290.392V227.427ZM291.664 222.822L292.342 221.368H293.601L292.626 222.822H291.664ZM303.812 225.57C303.767 225.415 303.704 225.277 303.623 225.158C303.542 225.037 303.443 224.934 303.326 224.851C303.211 224.766 303.079 224.701 302.93 224.656C302.783 224.612 302.62 224.589 302.441 224.589C302.106 224.589 301.812 224.672 301.558 224.838C301.307 225.005 301.111 225.246 300.97 225.564C300.83 225.879 300.759 226.265 300.759 226.721C300.759 227.177 300.829 227.565 300.967 227.884C301.106 228.204 301.302 228.448 301.555 228.616C301.809 228.782 302.108 228.865 302.453 228.865C302.767 228.865 303.034 228.81 303.256 228.699C303.479 228.586 303.65 228.428 303.767 228.223C303.886 228.018 303.946 227.777 303.946 227.498L304.227 227.539H302.54V226.497H305.279V227.322C305.279 227.897 305.157 228.391 304.914 228.805C304.671 229.216 304.337 229.533 303.911 229.757C303.485 229.979 302.997 230.089 302.447 230.089C301.833 230.089 301.294 229.954 300.83 229.684C300.365 229.411 300.003 229.024 299.743 228.523C299.485 228.021 299.356 227.424 299.356 226.734C299.356 226.203 299.433 225.73 299.587 225.315C299.742 224.897 299.959 224.543 300.239 224.254C300.518 223.964 300.843 223.743 301.213 223.592C301.584 223.441 301.986 223.365 302.418 223.365C302.789 223.365 303.134 223.419 303.454 223.528C303.773 223.635 304.057 223.786 304.304 223.982C304.553 224.178 304.757 224.411 304.914 224.682C305.072 224.95 305.173 225.246 305.218 225.57H303.812ZM311.392 223.455V230H310.008V223.455H311.392ZM321.996 225.746H320.596C320.57 225.565 320.518 225.404 320.439 225.263C320.361 225.121 320.259 224.999 320.136 224.899C320.012 224.799 319.869 224.722 319.707 224.669C319.548 224.616 319.374 224.589 319.187 224.589C318.848 224.589 318.553 224.673 318.301 224.842C318.05 225.008 317.855 225.251 317.716 225.57C317.578 225.888 317.509 226.273 317.509 226.727C317.509 227.194 317.578 227.586 317.716 227.903C317.857 228.221 318.053 228.461 318.304 228.623C318.556 228.784 318.847 228.865 319.177 228.865C319.362 228.865 319.534 228.841 319.691 228.792C319.851 228.743 319.993 228.672 320.117 228.578C320.24 228.482 320.342 228.366 320.423 228.229C320.506 228.093 320.564 227.937 320.596 227.763L321.996 227.769C321.96 228.07 321.869 228.359 321.724 228.638C321.581 228.915 321.389 229.164 321.146 229.383C320.905 229.6 320.617 229.773 320.283 229.901C319.95 230.027 319.574 230.089 319.155 230.089C318.571 230.089 318.049 229.957 317.589 229.693C317.13 229.429 316.768 229.047 316.502 228.546C316.238 228.045 316.106 227.439 316.106 226.727C316.106 226.013 316.24 225.406 316.508 224.906C316.777 224.405 317.141 224.023 317.601 223.761C318.062 223.497 318.579 223.365 319.155 223.365C319.534 223.365 319.885 223.418 320.209 223.525C320.535 223.631 320.824 223.787 321.075 223.991C321.327 224.194 321.531 224.442 321.689 224.736C321.849 225.03 321.951 225.367 321.996 225.746ZM332.693 226.727C332.693 227.441 332.558 228.048 332.287 228.549C332.019 229.05 331.652 229.432 331.188 229.696C330.725 229.958 330.206 230.089 329.628 230.089C329.046 230.089 328.524 229.957 328.062 229.693C327.6 229.429 327.234 229.047 326.966 228.546C326.697 228.045 326.563 227.439 326.563 226.727C326.563 226.013 326.697 225.406 326.966 224.906C327.234 224.405 327.6 224.023 328.062 223.761C328.524 223.497 329.046 223.365 329.628 223.365C330.206 223.365 330.725 223.497 331.188 223.761C331.652 224.023 332.019 224.405 332.287 224.906C332.558 225.406 332.693 226.013 332.693 226.727ZM331.29 226.727C331.29 226.265 331.221 225.875 331.082 225.558C330.946 225.24 330.753 224.999 330.504 224.835C330.255 224.671 329.963 224.589 329.628 224.589C329.294 224.589 329.002 224.671 328.752 224.835C328.503 224.999 328.309 225.24 328.171 225.558C328.034 225.875 327.966 226.265 327.966 226.727C327.966 227.19 328.034 227.58 328.171 227.897C328.309 228.214 328.503 228.455 328.752 228.619C329.002 228.783 329.294 228.865 329.628 228.865C329.963 228.865 330.255 228.783 330.504 228.619C330.753 228.455 330.946 228.214 331.082 227.897C331.221 227.58 331.29 227.19 331.29 226.727ZM340.959 225.337C340.933 225.079 340.824 224.879 340.63 224.736C340.436 224.593 340.173 224.522 339.84 224.522C339.615 224.522 339.424 224.554 339.268 224.618C339.113 224.68 338.993 224.766 338.91 224.877C338.829 224.988 338.789 225.113 338.789 225.254C338.785 225.371 338.809 225.473 338.862 225.561C338.918 225.648 338.993 225.724 339.089 225.788C339.185 225.849 339.296 225.904 339.422 225.951C339.547 225.995 339.682 226.034 339.824 226.066L340.412 226.206C340.698 226.27 340.96 226.355 341.199 226.462C341.437 226.569 341.644 226.7 341.819 226.855C341.993 227.011 342.129 227.194 342.225 227.405C342.323 227.616 342.373 227.858 342.375 228.13C342.373 228.531 342.27 228.878 342.068 229.172C341.868 229.464 341.578 229.691 341.199 229.853C340.822 230.013 340.367 230.093 339.834 230.093C339.306 230.093 338.845 230.012 338.453 229.85C338.063 229.688 337.759 229.448 337.539 229.131C337.322 228.811 337.208 228.416 337.197 227.945H338.536C338.551 228.164 338.614 228.348 338.725 228.495C338.838 228.64 338.988 228.749 339.176 228.824C339.365 228.896 339.579 228.933 339.818 228.933C340.052 228.933 340.256 228.898 340.428 228.83C340.603 228.762 340.738 228.667 340.834 228.546C340.93 228.424 340.978 228.285 340.978 228.127C340.978 227.98 340.935 227.857 340.847 227.756C340.762 227.656 340.636 227.571 340.47 227.501C340.306 227.43 340.105 227.366 339.866 227.309L339.153 227.13C338.601 226.996 338.166 226.786 337.846 226.5C337.526 226.215 337.368 225.83 337.37 225.347C337.368 224.95 337.473 224.604 337.686 224.308C337.901 224.012 338.197 223.781 338.572 223.614C338.947 223.448 339.373 223.365 339.85 223.365C340.336 223.365 340.76 223.448 341.122 223.614C341.486 223.781 341.77 224.012 341.972 224.308C342.175 224.604 342.279 224.947 342.285 225.337H340.959ZM233.414 249.547H230.304C230.247 249.144 230.131 248.787 229.956 248.474C229.78 248.157 229.556 247.887 229.281 247.665C229.006 247.442 228.689 247.272 228.329 247.153C227.974 247.035 227.588 246.976 227.172 246.976C226.419 246.976 225.763 247.163 225.204 247.537C224.645 247.906 224.212 248.446 223.904 249.156C223.597 249.862 223.443 250.719 223.443 251.727C223.443 252.764 223.597 253.635 223.904 254.341C224.217 255.046 224.653 255.579 225.211 255.939C225.77 256.299 226.416 256.479 227.15 256.479C227.562 256.479 227.943 256.424 228.294 256.315C228.649 256.206 228.964 256.048 229.238 255.839C229.513 255.626 229.74 255.368 229.92 255.065C230.105 254.762 230.233 254.417 230.304 254.028L233.414 254.043C233.334 254.71 233.133 255.354 232.811 255.974C232.493 256.59 232.065 257.142 231.525 257.629C230.99 258.112 230.351 258.496 229.608 258.78C228.869 259.059 228.033 259.199 227.1 259.199C225.803 259.199 224.643 258.905 223.62 258.318C222.602 257.731 221.797 256.881 221.206 255.768C220.618 254.656 220.325 253.309 220.325 251.727C220.325 250.141 220.623 248.792 221.22 247.679C221.816 246.566 222.626 245.719 223.649 245.136C224.672 244.549 225.822 244.256 227.1 244.256C227.943 244.256 228.725 244.374 229.444 244.611C230.169 244.848 230.81 245.193 231.369 245.648C231.928 246.098 232.382 246.649 232.733 247.303C233.088 247.956 233.315 248.704 233.414 249.547ZM237.853 259H234.558L239.579 244.455H243.542L248.556 259H245.261L241.618 247.778H241.504L237.853 259ZM237.647 253.283H245.431V255.683H237.647V253.283ZM250.307 259V244.455H256.046C257.149 244.455 258.089 244.665 258.865 245.087C259.642 245.503 260.234 246.083 260.641 246.827C261.053 247.565 261.259 248.418 261.259 249.384C261.259 250.349 261.051 251.202 260.634 251.94C260.217 252.679 259.614 253.254 258.823 253.666C258.037 254.078 257.085 254.284 255.968 254.284H252.31V251.82H255.471C256.062 251.82 256.55 251.718 256.934 251.514C257.322 251.306 257.611 251.019 257.8 250.655C257.994 250.286 258.091 249.862 258.091 249.384C258.091 248.901 257.994 248.479 257.8 248.119C257.611 247.755 257.322 247.473 256.934 247.274C256.545 247.071 256.053 246.969 255.456 246.969H253.382V259H250.307ZM266.332 244.455V259H263.256V244.455H266.332ZM268.862 259V244.455H271.937V250.868H272.129L277.363 244.455H281.049L275.652 250.967L281.113 259H277.434L273.45 253.02L271.937 254.866V259H268.862ZM291.635 244.455H294.711V253.901C294.711 254.961 294.457 255.889 293.951 256.685C293.449 257.48 292.746 258.1 291.841 258.545C290.937 258.986 289.883 259.206 288.681 259.206C287.473 259.206 286.417 258.986 285.513 258.545C284.609 258.1 283.906 257.48 283.404 256.685C282.902 255.889 282.651 254.961 282.651 253.901V244.455H285.726V253.638C285.726 254.192 285.847 254.684 286.088 255.115C286.335 255.546 286.68 255.884 287.125 256.131C287.57 256.377 288.089 256.5 288.681 256.5C289.277 256.5 289.796 256.377 290.236 256.131C290.681 255.884 291.025 255.546 291.266 255.115C291.512 254.684 291.635 254.192 291.635 253.638V244.455ZM309.407 244.455V259H306.751L300.423 249.845H300.316V259H297.241V244.455H299.94L306.218 253.602H306.346V244.455H309.407Z" fill="#262626"/>
<path d="M264.109 87.0254C264.109 87.0445 264.064 87.2545 264.02 87.4898C263.931 87.897 263.658 90.5433 263.347 94.0294C262.451 103.921 260.495 113.19 258.451 117.217C255.663 122.707 250.83 126.657 244.842 128.356C241.552 129.284 235.316 130.321 231.246 130.608C230.477 130.665 229.677 130.735 229.468 130.767C229.258 130.805 229.061 130.83 229.023 130.83C228.991 130.83 228.991 130.856 229.029 130.894C229.112 130.977 230.573 131.206 233.246 131.562C239.609 132.408 243.515 133.159 246.182 134.049C251.383 135.779 255.898 139.755 258.482 144.883C259.403 146.702 259.848 147.943 260.457 150.328C261.785 155.538 262.864 162.237 263.442 168.903C263.779 172.765 264.026 174.858 264.16 174.991C264.242 175.074 264.287 174.578 264.325 173.038C264.502 166.422 266.744 152.707 268.484 147.612C270.021 143.114 272.961 139.234 276.809 136.626C278.499 135.48 280.391 134.526 281.998 134.011C284.963 133.057 293.574 131.53 297.581 131.25C298.559 131.18 298.883 131.142 298.959 131.066C299.042 130.977 299.017 130.957 298.712 130.868C298.261 130.748 297.62 130.665 296.146 130.544C292.609 130.245 287.091 129.329 283.89 128.508C281.248 127.828 279.115 126.886 276.968 125.455C275.628 124.558 274.904 123.96 273.698 122.751C272.32 121.371 271.335 120.13 270.415 118.584C269.938 117.789 269.214 116.345 268.916 115.595C268.256 113.934 266.954 108.852 266.338 105.512C265.982 103.61 265.195 98.5714 265.061 97.3691C264.661 93.7368 264.248 88.5713 264.236 87.1081C264.236 87.0509 264.21 87 264.172 87C264.14 87 264.109 87.0127 264.109 87.0254ZM265.69 123.96C266.452 124.176 266.738 124.354 268.16 125.512C268.49 125.779 268.865 126.053 269.005 126.123C269.418 126.339 269.875 126.263 270.25 125.913C270.567 125.627 270.599 124.971 270.3 124.838C270.123 124.755 269.951 124.857 269.951 125.048C269.951 125.207 269.78 125.359 269.602 125.359C269.386 125.359 269.253 125.194 269.253 124.92C269.253 124.666 269.468 124.31 269.576 124.38C269.614 124.399 269.678 124.386 269.722 124.348C269.913 124.189 270.554 124.66 270.707 125.06C270.796 125.289 270.713 125.671 270.504 125.989C270.288 126.314 269.926 126.6 269.189 127.039C268.859 127.236 268.541 127.427 268.49 127.459C268.44 127.497 268.338 127.548 268.268 127.58C268.198 127.611 267.887 127.834 267.582 128.082C267.195 128.387 266.979 128.515 266.897 128.496C266.833 128.477 266.776 128.451 266.776 128.438C266.776 128.426 266.922 128.127 267.1 127.777C267.595 126.816 267.589 126.377 267.093 125.709C266.617 125.067 265.703 124.513 264.998 124.443C262.851 124.227 261.219 125.487 260.349 128.025C259.708 129.901 259.638 132.408 260.178 134.036C260.578 135.226 261.257 136.346 262.007 137.014C262.337 137.313 263.042 137.764 263.182 137.764C263.22 137.764 263.296 137.802 263.334 137.841C263.391 137.898 263.721 137.93 264.401 137.942C265.303 137.968 265.423 137.955 265.773 137.821C266.281 137.631 266.992 137.16 267.341 136.785C267.487 136.619 267.697 136.295 267.798 136.072C268.052 135.519 268.059 135.111 267.817 134.583C267.646 134.202 267.646 134.183 267.76 134.1C267.862 134.024 267.894 134.024 267.976 134.1C268.16 134.259 268.573 134.437 269.157 134.615C269.475 134.711 269.856 134.857 270.008 134.946C270.262 135.092 270.281 135.118 270.18 135.188C270.123 135.232 269.945 135.29 269.792 135.315C269.468 135.36 269.36 135.474 268.675 136.486C268.09 137.357 267.532 137.79 266.338 138.324C265.404 138.731 263.772 138.668 262.547 138.165C261.219 137.618 259.962 136.314 259.105 134.583C258.584 133.54 258.52 133.388 258.266 132.58C258.031 131.829 257.816 131.403 257.485 131.059C257.2 130.754 257.219 130.652 257.606 130.379C257.93 130.156 258.184 129.832 258.355 129.424C258.495 129.1 258.565 128.935 258.838 128.286C259.429 126.88 260.451 125.557 261.499 124.851C262.807 123.973 264.458 123.623 265.69 123.96ZM264.325 130.169C264.522 130.665 264.68 131.104 264.68 131.148C264.68 131.212 264.426 131.854 264.14 132.516C264.052 132.713 263.874 133.19 263.81 133.388C263.766 133.534 263.664 133.534 263.664 133.388C263.664 133.324 263.639 133.248 263.607 133.209C263.582 133.178 263.391 132.739 263.188 132.23C262.985 131.721 262.801 131.276 262.769 131.244C262.743 131.206 262.756 131.091 262.807 130.989C262.851 130.881 262.953 130.627 263.029 130.417C263.188 130.003 263.277 129.781 263.429 129.431C263.48 129.31 263.575 129.094 263.632 128.954L263.734 128.699L263.855 128.985C263.918 129.144 264.134 129.679 264.325 130.169Z" fill="black" fill-opacity="0.5"/>
<defs>
<filter id="filter0_d_29_4" x="40.2305" y="52.25" width="450.539" height="164.75" filterUnits="userSpaceOnUse" color-interpolation-filters="sRGB">
<feFlood flood-opacity="0" result="BackgroundImageFix"/>
<feColorMatrix in="SourceAlpha" type="matrix" values="0 0 0 0 0 0 0 0 0 0 0 0 0 0 0 0 0 0 127 0" result="hardAlpha"/>
<feOffset dy="4"/>
<feGaussianBlur stdDeviation="2"/>
<feComposite in2="hardAlpha" operator="out"/>
<feColorMatrix type="matrix" values="0 0 0 0 0 0 0 0 0 0 0 0 0 0 0 0 0 0 0.25 0"/>
<feBlend mode="normal" in2="BackgroundImageFix" result="effect1_dropShadow_29_4"/>
<feBlend mode="normal" in="SourceGraphic" in2="effect1_dropShadow_29_4" result="shape"/>
</filter>
<linearGradient id="paint0_linear_29_4" x1="272.5" y1="52" x2="272.5" y2="311" gradientUnits="userSpaceOnUse">
<stop stop-color="#EEEEEE"/>
<stop offset="1" stop-color="#B4B4B4"/>
</linearGradient>
</defs>
</svg>
