<svg width="1440" height="726" viewBox="0 0 1440 726" fill="none" xmlns="http://www.w3.org/2000/svg">
<rect width="1440" height="726" fill="#101010"/>
<path d="M116.982 568.404C116.943 568.632 116.827 569.845 116.712 571.096C116.288 575.935 115.311 580.522 114.295 582.468C112.881 585.135 110.555 586.979 107.547 587.788C105.992 588.205 102.843 588.711 101.262 588.812C100.529 588.85 99.9633 588.913 100.002 588.951C100.028 588.989 101.094 589.14 102.367 589.304C105.131 589.646 107.534 590.126 108.691 590.568C111.737 591.693 114.141 594.308 115.092 597.505C115.786 599.893 116.442 603.684 116.725 606.982C116.93 609.446 117.11 610.659 117.123 609.636C117.149 606.515 118.228 599.717 119.115 597.063C120.131 594.005 122.457 591.617 125.542 590.492C126.879 590.012 132.136 589.102 133.602 589.102C133.82 589.102 134 589.052 134 589.001C134 588.938 133.422 588.85 132.727 588.799C131.134 588.698 128.036 588.192 126.429 587.763C123.28 586.929 120.761 584.793 119.45 581.837C119.051 580.952 118.293 577.957 117.997 576.15C117.701 574.343 117.676 574.166 117.611 573.813C117.509 573.257 117.162 569.617 117.136 568.783C117.123 568.354 117.097 568 117.084 568C117.059 568 117.02 568.19 116.982 568.404Z" fill="#202020"/>
<path d="M133.982 453.404C133.943 453.632 133.827 454.845 133.712 456.096C133.288 460.935 132.311 465.522 131.295 467.468C129.881 470.135 127.555 471.979 124.547 472.788C122.992 473.205 119.843 473.711 118.262 473.812C117.529 473.85 116.963 473.913 117.002 473.951C117.028 473.989 118.094 474.14 119.367 474.304C122.131 474.646 124.534 475.126 125.691 475.568C128.737 476.693 131.141 479.308 132.092 482.505C132.786 484.893 133.442 488.684 133.725 491.982C133.93 494.446 134.11 495.659 134.123 494.636C134.149 491.515 135.228 484.717 136.115 482.063C137.131 479.005 139.457 476.617 142.542 475.492C143.879 475.012 149.136 474.102 150.602 474.102C150.82 474.102 151 474.052 151 474.001C151 473.938 150.422 473.85 149.727 473.799C148.134 473.698 145.036 473.192 143.429 472.763C140.28 471.929 137.761 469.793 136.45 466.837C136.051 465.952 135.293 462.957 134.997 461.15C134.701 459.343 134.676 459.166 134.611 458.813C134.509 458.257 134.162 454.617 134.136 453.783C134.123 453.354 134.097 453 134.084 453C134.059 453 134.02 453.19 133.982 453.404Z" fill="#202020"/>
<path d="M262.491 666.202C262.472 666.316 262.414 666.922 262.356 667.548C262.144 669.968 261.655 672.261 261.148 673.234C260.441 674.567 259.277 675.49 257.774 675.894C256.996 676.103 255.421 676.355 254.631 676.406C254.264 676.425 253.982 676.456 254.001 676.475C254.014 676.494 254.547 676.57 255.183 676.652C256.565 676.823 257.767 677.063 258.345 677.284C259.869 677.846 261.07 679.154 261.546 680.753C261.893 681.947 262.221 683.842 262.362 685.491C262.465 686.723 262.555 687.33 262.562 686.818C262.574 685.257 263.114 681.858 263.558 680.531C264.065 679.003 265.229 677.808 266.771 677.246C267.44 677.006 270.068 676.551 270.801 676.551C270.91 676.551 271 676.526 271 676.501C271 676.469 270.711 676.425 270.364 676.399C269.567 676.349 268.018 676.096 267.215 675.881C265.64 675.464 264.38 674.397 263.725 672.918C263.526 672.476 263.146 670.979 262.999 670.075C262.851 669.172 262.838 669.083 262.806 668.906C262.754 668.628 262.581 666.809 262.568 666.392C262.562 666.177 262.549 666 262.542 666C262.529 666 262.51 666.095 262.491 666.202Z" fill="#202020"/>
<path d="M207.491 613.202C207.472 613.316 207.414 613.922 207.356 614.548C207.144 616.968 206.655 619.261 206.148 620.234C205.441 621.567 204.277 622.49 202.774 622.894C201.996 623.103 200.421 623.355 199.631 623.406C199.264 623.425 198.982 623.456 199.001 623.475C199.014 623.494 199.547 623.57 200.183 623.652C201.565 623.823 202.767 624.063 203.345 624.284C204.869 624.846 206.07 626.154 206.546 627.753C206.893 628.947 207.221 630.842 207.362 632.491C207.465 633.723 207.555 634.33 207.562 633.818C207.574 632.257 208.114 628.858 208.558 627.531C209.065 626.003 210.229 624.808 211.771 624.246C212.44 624.006 215.068 623.551 215.801 623.551C215.91 623.551 216 623.526 216 623.501C216 623.469 215.711 623.425 215.364 623.399C214.567 623.349 213.018 623.096 212.215 622.881C210.64 622.464 209.38 621.397 208.725 619.918C208.526 619.476 208.146 617.979 207.999 617.075C207.851 616.172 207.838 616.083 207.806 615.906C207.754 615.628 207.581 613.809 207.568 613.392C207.562 613.177 207.549 613 207.542 613C207.529 613 207.51 613.095 207.491 613.202Z" fill="#202020"/>
<path d="M82.9816 266.404C82.9431 266.632 82.8274 267.845 82.7117 269.096C82.2875 273.935 81.3107 278.522 80.2952 280.468C78.8813 283.135 76.5548 284.979 73.547 285.788C71.9917 286.205 68.8425 286.711 67.2615 286.812C66.5289 286.85 65.9633 286.913 66.0019 286.951C66.0276 286.989 67.0944 287.14 68.3669 287.304C71.1305 287.646 73.5342 288.126 74.691 288.568C77.7373 289.693 80.141 292.308 81.0922 295.505C81.7863 297.893 82.4418 301.684 82.7246 304.982C82.9302 307.446 83.1102 308.659 83.123 307.636C83.1487 304.515 84.2285 297.717 85.1154 295.063C86.1308 292.005 88.4573 289.617 91.5422 288.492C92.879 288.012 98.1362 287.102 99.6015 287.102C99.82 287.102 100 287.052 100 287.001C100 286.938 99.4216 286.85 98.7275 286.799C97.1336 286.698 94.0359 286.192 92.4291 285.763C89.28 284.929 86.7606 282.793 85.4496 279.837C85.0511 278.952 84.2927 275.957 83.9971 274.15C83.7015 272.343 83.6758 272.166 83.6115 271.813C83.5087 271.257 83.1616 267.617 83.1359 266.783C83.123 266.354 83.0973 266 83.0845 266C83.0588 266 83.0202 266.19 82.9816 266.404Z" fill="#202020"/>
<path d="M158.491 412.202C158.472 412.316 158.414 412.922 158.356 413.548C158.144 415.968 157.655 418.261 157.148 419.234C156.441 420.567 155.277 421.49 153.774 421.894C152.996 422.103 151.421 422.355 150.631 422.406C150.264 422.425 149.982 422.456 150.001 422.475C150.014 422.494 150.547 422.57 151.183 422.652C152.565 422.823 153.767 423.063 154.345 423.284C155.869 423.846 157.07 425.154 157.546 426.753C157.893 427.947 158.221 429.842 158.362 431.491C158.465 432.723 158.555 433.33 158.562 432.818C158.574 431.257 159.114 427.858 159.558 426.531C160.065 425.003 161.229 423.808 162.771 423.246C163.44 423.006 166.068 422.551 166.801 422.551C166.91 422.551 167 422.526 167 422.501C167 422.469 166.711 422.425 166.364 422.399C165.567 422.349 164.018 422.096 163.215 421.881C161.64 421.464 160.38 420.397 159.725 418.918C159.526 418.476 159.146 416.979 158.999 416.075C158.851 415.172 158.838 415.083 158.806 414.906C158.754 414.628 158.581 412.809 158.568 412.392C158.562 412.177 158.549 412 158.542 412C158.529 412 158.51 412.095 158.491 412.202Z" fill="#202020"/>
<path d="M103.491 359.202C103.472 359.316 103.414 359.922 103.356 360.548C103.144 362.968 102.655 365.261 102.148 366.234C101.441 367.567 100.277 368.49 98.7735 368.894C97.9959 369.103 96.4213 369.355 95.6308 369.406C95.2644 369.425 94.9816 369.456 95.0009 369.475C95.0138 369.494 95.5472 369.57 96.1835 369.652C97.5653 369.823 98.7671 370.063 99.3455 370.284C100.869 370.846 102.07 372.154 102.546 373.753C102.893 374.947 103.221 376.842 103.362 378.491C103.465 379.723 103.555 380.33 103.562 379.818C103.574 378.257 104.114 374.858 104.558 373.531C105.065 372.003 106.229 370.808 107.771 370.246C108.44 370.006 111.068 369.551 111.801 369.551C111.91 369.551 112 369.526 112 369.501C112 369.469 111.711 369.425 111.364 369.399C110.567 369.349 109.018 369.096 108.215 368.881C106.64 368.464 105.38 367.397 104.725 365.918C104.526 365.476 104.146 363.979 103.999 363.075C103.851 362.172 103.838 362.083 103.806 361.906C103.754 361.628 103.581 359.809 103.568 359.392C103.562 359.177 103.549 359 103.542 359C103.529 359 103.51 359.095 103.491 359.202Z" fill="#202020"/>
<path d="M1235.98 568.404C1235.94 568.632 1235.83 569.845 1235.71 571.096C1235.29 575.935 1234.31 580.522 1233.3 582.468C1231.88 585.135 1229.55 586.979 1226.55 587.788C1224.99 588.205 1221.84 588.711 1220.26 588.812C1219.53 588.85 1218.96 588.913 1219 588.951C1219.03 588.989 1220.09 589.14 1221.37 589.304C1224.13 589.646 1226.53 590.126 1227.69 590.568C1230.74 591.693 1233.14 594.308 1234.09 597.505C1234.79 599.893 1235.44 603.684 1235.72 606.982C1235.93 609.446 1236.11 610.659 1236.12 609.636C1236.15 606.515 1237.23 599.717 1238.12 597.063C1239.13 594.005 1241.46 591.617 1244.54 590.492C1245.88 590.012 1251.14 589.102 1252.6 589.102C1252.82 589.102 1253 589.052 1253 589.001C1253 588.938 1252.42 588.85 1251.73 588.799C1250.13 588.698 1247.04 588.192 1245.43 587.763C1242.28 586.929 1239.76 584.793 1238.45 581.837C1238.05 580.952 1237.29 577.957 1237 576.15C1236.7 574.343 1236.68 574.166 1236.61 573.813C1236.51 573.257 1236.16 569.617 1236.14 568.783C1236.12 568.354 1236.1 568 1236.08 568C1236.06 568 1236.02 568.19 1235.98 568.404Z" fill="#202020"/>
<path d="M903.982 179.404C903.943 179.632 903.827 180.845 903.712 182.096C903.288 186.935 902.311 191.522 901.295 193.468C899.881 196.135 897.555 197.979 894.547 198.788C892.992 199.205 889.843 199.711 888.262 199.812C887.529 199.85 886.963 199.913 887.002 199.951C887.028 199.989 888.094 200.14 889.367 200.304C892.131 200.646 894.534 201.126 895.691 201.568C898.737 202.693 901.141 205.308 902.092 208.505C902.786 210.893 903.442 214.684 903.725 217.982C903.93 220.446 904.11 221.659 904.123 220.636C904.149 217.515 905.228 210.717 906.115 208.063C907.131 205.005 909.457 202.617 912.542 201.492C913.879 201.012 919.136 200.102 920.602 200.102C920.82 200.102 921 200.052 921 200.001C921 199.938 920.422 199.85 919.727 199.799C918.134 199.698 915.036 199.192 913.429 198.763C910.28 197.929 907.761 195.793 906.45 192.837C906.051 191.952 905.293 188.957 904.997 187.15C904.701 185.343 904.676 185.166 904.611 184.813C904.509 184.257 904.162 180.617 904.136 179.783C904.123 179.354 904.097 179 904.084 179C904.059 179 904.02 179.19 903.982 179.404Z" fill="#202020"/>
<path d="M1333.49 597.202C1333.47 597.316 1333.41 597.922 1333.36 598.548C1333.14 600.968 1332.66 603.261 1332.15 604.234C1331.44 605.567 1330.28 606.49 1328.77 606.894C1328 607.103 1326.42 607.355 1325.63 607.406C1325.26 607.425 1324.98 607.456 1325 607.475C1325.01 607.494 1325.55 607.57 1326.18 607.652C1327.57 607.823 1328.77 608.063 1329.35 608.284C1330.87 608.846 1332.07 610.154 1332.55 611.753C1332.89 612.947 1333.22 614.842 1333.36 616.491C1333.47 617.723 1333.56 618.33 1333.56 617.818C1333.57 616.257 1334.11 612.858 1334.56 611.531C1335.07 610.003 1336.23 608.808 1337.77 608.246C1338.44 608.006 1341.07 607.551 1341.8 607.551C1341.91 607.551 1342 607.526 1342 607.501C1342 607.469 1341.71 607.425 1341.36 607.399C1340.57 607.349 1339.02 607.096 1338.21 606.881C1336.64 606.464 1335.38 605.397 1334.72 603.918C1334.53 603.476 1334.15 601.979 1334 601.075C1333.85 600.172 1333.84 600.083 1333.81 599.906C1333.75 599.628 1333.58 597.809 1333.57 597.392C1333.56 597.177 1333.55 597 1333.54 597C1333.53 597 1333.51 597.095 1333.49 597.202Z" fill="#202020"/>
<path d="M993.982 587.404C993.943 587.632 993.827 588.845 993.712 590.096C993.288 594.935 992.311 599.522 991.295 601.468C989.881 604.135 987.555 605.979 984.547 606.788C982.992 607.205 979.843 607.711 978.262 607.812C977.529 607.85 976.963 607.913 977.002 607.951C977.028 607.989 978.094 608.14 979.367 608.304C982.131 608.646 984.534 609.126 985.691 609.568C988.737 610.693 991.141 613.308 992.092 616.505C992.786 618.893 993.442 622.684 993.725 625.982C993.93 628.446 994.11 629.659 994.123 628.636C994.149 625.515 995.228 618.717 996.115 616.063C997.131 613.005 999.457 610.617 1002.54 609.492C1003.88 609.012 1009.14 608.102 1010.6 608.102C1010.82 608.102 1011 608.052 1011 608.001C1011 607.938 1010.42 607.85 1009.73 607.799C1008.13 607.698 1005.04 607.192 1003.43 606.763C1000.28 605.929 997.761 603.793 996.45 600.837C996.051 599.952 995.293 596.957 994.997 595.15C994.701 593.343 994.676 593.166 994.611 592.813C994.509 592.257 994.162 588.617 994.136 587.783C994.123 587.354 994.097 587 994.084 587C994.059 587 994.02 587.19 993.982 587.404Z" fill="#202020"/>
<path d="M1334.98 363.404C1334.94 363.632 1334.83 364.845 1334.71 366.096C1334.29 370.935 1333.31 375.522 1332.3 377.468C1330.88 380.135 1328.55 381.979 1325.55 382.788C1323.99 383.205 1320.84 383.711 1319.26 383.812C1318.53 383.85 1317.96 383.913 1318 383.951C1318.03 383.989 1319.09 384.14 1320.37 384.304C1323.13 384.646 1325.53 385.126 1326.69 385.568C1329.74 386.693 1332.14 389.308 1333.09 392.505C1333.79 394.893 1334.44 398.684 1334.72 401.982C1334.93 404.446 1335.11 405.659 1335.12 404.636C1335.15 401.515 1336.23 394.717 1337.12 392.063C1338.13 389.005 1340.46 386.617 1343.54 385.492C1344.88 385.012 1350.14 384.102 1351.6 384.102C1351.82 384.102 1352 384.052 1352 384.001C1352 383.938 1351.42 383.85 1350.73 383.799C1349.13 383.698 1346.04 383.192 1344.43 382.763C1341.28 381.929 1338.76 379.793 1337.45 376.837C1337.05 375.952 1336.29 372.957 1336 371.15C1335.7 369.343 1335.68 369.166 1335.61 368.813C1335.51 368.257 1335.16 364.617 1335.14 363.783C1335.12 363.354 1335.1 363 1335.08 363C1335.06 363 1335.02 363.19 1334.98 363.404Z" fill="#202020"/>
<path d="M1304.49 269.202C1304.47 269.316 1304.41 269.922 1304.36 270.548C1304.14 272.968 1303.66 275.261 1303.15 276.234C1302.44 277.567 1301.28 278.49 1299.77 278.894C1299 279.103 1297.42 279.355 1296.63 279.406C1296.26 279.425 1295.98 279.456 1296 279.475C1296.01 279.494 1296.55 279.57 1297.18 279.652C1298.57 279.823 1299.77 280.063 1300.35 280.284C1301.87 280.846 1303.07 282.154 1303.55 283.753C1303.89 284.947 1304.22 286.842 1304.36 288.491C1304.47 289.723 1304.56 290.33 1304.56 289.818C1304.57 288.257 1305.11 284.858 1305.56 283.531C1306.07 282.003 1307.23 280.808 1308.77 280.246C1309.44 280.006 1312.07 279.551 1312.8 279.551C1312.91 279.551 1313 279.526 1313 279.501C1313 279.469 1312.71 279.425 1312.36 279.399C1311.57 279.349 1310.02 279.096 1309.21 278.881C1307.64 278.464 1306.38 277.397 1305.72 275.918C1305.53 275.476 1305.15 273.979 1305 273.075C1304.85 272.172 1304.84 272.083 1304.81 271.906C1304.75 271.628 1304.58 269.809 1304.57 269.392C1304.56 269.177 1304.55 269 1304.54 269C1304.53 269 1304.51 269.095 1304.49 269.202Z" fill="#202020"/>
<path d="M482.982 592.404C482.943 592.632 482.827 593.845 482.712 595.096C482.288 599.935 481.311 604.522 480.295 606.468C478.881 609.135 476.555 610.979 473.547 611.788C471.992 612.205 468.843 612.711 467.262 612.812C466.529 612.85 465.963 612.913 466.002 612.951C466.028 612.989 467.094 613.14 468.367 613.304C471.131 613.646 473.534 614.126 474.691 614.568C477.737 615.693 480.141 618.308 481.092 621.505C481.786 623.893 482.442 627.684 482.725 630.982C482.93 633.446 483.11 634.659 483.123 633.636C483.149 630.515 484.228 623.717 485.115 621.063C486.131 618.005 488.457 615.617 491.542 614.492C492.879 614.012 498.136 613.102 499.602 613.102C499.82 613.102 500 613.052 500 613.001C500 612.938 499.422 612.85 498.727 612.799C497.134 612.698 494.036 612.192 492.429 611.763C489.28 610.929 486.761 608.793 485.45 605.837C485.051 604.952 484.293 601.957 483.997 600.15C483.701 598.343 483.676 598.166 483.611 597.813C483.509 597.257 483.162 593.617 483.136 592.783C483.123 592.354 483.097 592 483.084 592C483.059 592 483.02 592.19 482.982 592.404Z" fill="#202020"/>
<path d="M262.982 179.404C262.943 179.632 262.827 180.845 262.712 182.096C262.288 186.935 261.311 191.522 260.295 193.468C258.881 196.135 256.555 197.979 253.547 198.788C251.992 199.205 248.843 199.711 247.262 199.812C246.529 199.85 245.963 199.913 246.002 199.951C246.028 199.989 247.094 200.14 248.367 200.304C251.131 200.646 253.534 201.126 254.691 201.568C257.737 202.693 260.141 205.308 261.092 208.505C261.786 210.893 262.442 214.684 262.725 217.982C262.93 220.446 263.11 221.659 263.123 220.636C263.149 217.515 264.228 210.717 265.115 208.063C266.131 205.005 268.457 202.617 271.542 201.492C272.879 201.012 278.136 200.102 279.602 200.102C279.82 200.102 280 200.052 280 200.001C280 199.938 279.422 199.85 278.727 199.799C277.134 199.698 274.036 199.192 272.429 198.763C269.28 197.929 266.761 195.793 265.45 192.837C265.051 191.952 264.293 188.957 263.997 187.15C263.701 185.343 263.676 185.166 263.611 184.813C263.509 184.257 263.162 180.617 263.136 179.783C263.123 179.354 263.097 179 263.084 179C263.059 179 263.02 179.19 262.982 179.404Z" fill="#202020"/>
<path d="M844.491 645.202C844.472 645.316 844.414 645.922 844.356 646.548C844.144 648.968 843.655 651.261 843.148 652.234C842.441 653.567 841.277 654.49 839.774 654.894C838.996 655.103 837.421 655.355 836.631 655.406C836.264 655.425 835.982 655.456 836.001 655.475C836.014 655.494 836.547 655.57 837.183 655.652C838.565 655.823 839.767 656.063 840.345 656.284C841.869 656.846 843.07 658.154 843.546 659.753C843.893 660.947 844.221 662.842 844.362 664.491C844.465 665.723 844.555 666.33 844.562 665.818C844.574 664.257 845.114 660.858 845.558 659.531C846.065 658.003 847.229 656.808 848.771 656.246C849.44 656.006 852.068 655.551 852.801 655.551C852.91 655.551 853 655.526 853 655.501C853 655.469 852.711 655.425 852.364 655.399C851.567 655.349 850.018 655.096 849.215 654.881C847.64 654.464 846.38 653.397 845.725 651.918C845.526 651.476 845.146 649.979 844.999 649.075C844.851 648.172 844.838 648.083 844.806 647.906C844.754 647.628 844.581 645.809 844.568 645.392C844.562 645.177 844.549 645 844.542 645C844.529 645 844.51 645.095 844.491 645.202Z" fill="#202020"/>
<path d="M745.491 587.202C745.472 587.316 745.414 587.922 745.356 588.548C745.144 590.968 744.655 593.261 744.148 594.234C743.441 595.567 742.277 596.49 740.774 596.894C739.996 597.103 738.421 597.355 737.631 597.406C737.264 597.425 736.982 597.456 737.001 597.475C737.014 597.494 737.547 597.57 738.183 597.652C739.565 597.823 740.767 598.063 741.345 598.284C742.869 598.846 744.07 600.154 744.546 601.753C744.893 602.947 745.221 604.842 745.362 606.491C745.465 607.723 745.555 608.33 745.562 607.818C745.574 606.257 746.114 602.858 746.558 601.531C747.065 600.003 748.229 598.808 749.771 598.246C750.44 598.006 753.068 597.551 753.801 597.551C753.91 597.551 754 597.526 754 597.501C754 597.469 753.711 597.425 753.364 597.399C752.567 597.349 751.018 597.096 750.215 596.881C748.64 596.464 747.38 595.397 746.725 593.918C746.526 593.476 746.146 591.979 745.999 591.075C745.851 590.172 745.838 590.083 745.806 589.906C745.754 589.628 745.581 587.809 745.568 587.392C745.562 587.177 745.549 587 745.542 587C745.529 587 745.51 587.095 745.491 587.202Z" fill="#202020"/>
<path d="M617.982 645.404C617.943 645.632 617.827 646.845 617.712 648.096C617.288 652.935 616.311 657.522 615.295 659.468C613.881 662.135 611.555 663.979 608.547 664.788C606.992 665.205 603.843 665.711 602.262 665.812C601.529 665.85 600.963 665.913 601.002 665.951C601.028 665.989 602.094 666.14 603.367 666.304C606.131 666.646 608.534 667.126 609.691 667.568C612.737 668.693 615.141 671.308 616.092 674.505C616.786 676.893 617.442 680.684 617.725 683.982C617.93 686.446 618.11 687.659 618.123 686.636C618.149 683.515 619.228 676.717 620.115 674.063C621.131 671.005 623.457 668.617 626.542 667.492C627.879 667.012 633.136 666.102 634.602 666.102C634.82 666.102 635 666.052 635 666.001C635 665.938 634.422 665.85 633.727 665.799C632.134 665.698 629.036 665.192 627.429 664.763C624.28 663.929 621.761 661.793 620.45 658.837C620.051 657.952 619.293 654.957 618.997 653.15C618.701 651.343 618.676 651.166 618.611 650.813C618.509 650.257 618.162 646.617 618.136 645.783C618.123 645.354 618.097 645 618.084 645C618.059 645 618.02 645.19 617.982 645.404Z" fill="#202020"/>
<path d="M482.491 168.202C482.472 168.316 482.414 168.922 482.356 169.548C482.144 171.968 481.655 174.261 481.148 175.234C480.441 176.567 479.277 177.49 477.774 177.894C476.996 178.103 475.421 178.355 474.631 178.406C474.264 178.425 473.982 178.456 474.001 178.475C474.014 178.494 474.547 178.57 475.183 178.652C476.565 178.823 477.767 179.063 478.345 179.284C479.869 179.846 481.07 181.154 481.546 182.753C481.893 183.947 482.221 185.842 482.362 187.491C482.465 188.723 482.555 189.33 482.562 188.818C482.574 187.257 483.114 183.858 483.558 182.531C484.065 181.003 485.229 179.808 486.771 179.246C487.44 179.006 490.068 178.551 490.801 178.551C490.91 178.551 491 178.526 491 178.501C491 178.469 490.711 178.425 490.364 178.399C489.567 178.349 488.018 178.096 487.215 177.881C485.64 177.464 484.38 176.397 483.725 174.918C483.526 174.476 483.146 172.979 482.999 172.075C482.851 171.172 482.838 171.083 482.806 170.906C482.754 170.628 482.581 168.809 482.568 168.392C482.562 168.177 482.549 168 482.542 168C482.529 168 482.51 168.095 482.491 168.202Z" fill="#202020"/>
<path d="M745.491 178.202C745.472 178.316 745.414 178.922 745.356 179.548C745.144 181.968 744.655 184.261 744.148 185.234C743.441 186.567 742.277 187.49 740.774 187.894C739.996 188.103 738.421 188.355 737.631 188.406C737.264 188.425 736.982 188.456 737.001 188.475C737.014 188.494 737.547 188.57 738.183 188.652C739.565 188.823 740.767 189.063 741.345 189.284C742.869 189.846 744.07 191.154 744.546 192.753C744.893 193.947 745.221 195.842 745.362 197.491C745.465 198.723 745.555 199.33 745.562 198.818C745.574 197.257 746.114 193.858 746.558 192.531C747.065 191.003 748.229 189.808 749.771 189.246C750.44 189.006 753.068 188.551 753.801 188.551C753.91 188.551 754 188.526 754 188.501C754 188.469 753.711 188.425 753.364 188.399C752.567 188.349 751.018 188.096 750.215 187.881C748.64 187.464 747.38 186.397 746.725 184.918C746.526 184.476 746.146 182.979 745.999 182.075C745.851 181.172 745.838 181.083 745.806 180.906C745.754 180.628 745.581 178.809 745.568 178.392C745.562 178.177 745.549 178 745.542 178C745.529 178 745.51 178.095 745.491 178.202Z" fill="#202020"/>
</svg>
