<?xml version="1.0" standalone="no"?>
<!DOCTYPE svg PUBLIC "-//W3C//DTD SVG 20010904//EN"
 "http://www.w3.org/TR/2001/REC-SVG-20010904/DTD/svg10.dtd">
<svg version="1.0" xmlns="http://www.w3.org/2000/svg"
 width="1617.000000pt" height="1500.000000pt" viewBox="0 0 1617.000000 1500.000000"
 preserveAspectRatio="xMidYMid meet">

<g transform="translate(0.000000,1500.000000) scale(0.100000,-0.100000)"
fill="#000000" stroke="none">
<path d="M8090 14446 c0 -3 -7 -36 -14 -73 -14 -64 -57 -480 -106 -1028 -141
-1555 -449 -3012 -771 -3645 -439 -863 -1200 -1484 -2143 -1751 -518 -146
-1500 -309 -2141 -354 -121 -9 -247 -20 -280 -25 -33 -6 -64 -10 -70 -10 -5 0
-5 -4 1 -10 13 -13 243 -49 664 -105 1002 -133 1617 -251 2037 -391 819 -272
1530 -897 1937 -1703 145 -286 215 -481 311 -856 209 -819 379 -1872 470
-2920 53 -607 92 -936 113 -957 13 -13 20 65 26 307 28 1040 381 3196 655
3997 242 707 705 1317 1311 1727 266 180 564 330 817 411 467 150 1823 390
2454 434 154 11 205 17 217 29 13 14 9 17 -39 31 -71 19 -172 32 -404 51 -557
47 -1426 191 -1930 320 -416 107 -752 255 -1090 480 -211 141 -325 235 -515
425 -217 217 -372 412 -517 655 -75 125 -189 352 -236 470 -104 261 -309 1060
-406 1585 -56 299 -180 1091 -201 1280 -63 571 -128 1383 -130 1613 0 9 -4 17
-10 17 -5 0 -10 -2 -10 -4z m249 -5806 c120 -34 165 -62 389 -244 52 -42 111
-85 133 -96 65 -34 137 -22 196 33 50 45 55 148 8 169 -28 13 -55 -3 -55 -33
0 -25 -27 -49 -55 -49 -34 0 -55 26 -55 69 0 40 34 96 51 85 6 -3 16 -1 23 5
30 25 131 -49 155 -112 14 -36 1 -96 -32 -146 -34 -51 -91 -96 -207 -165 -52
-31 -102 -61 -110 -66 -8 -6 -24 -14 -35 -19 -11 -5 -60 -40 -108 -79 -61 -48
-95 -68 -108 -65 -10 3 -19 7 -19 9 0 2 23 49 51 104 78 151 77 220 -1 325
-75 101 -219 188 -330 199 -338 34 -595 -164 -732 -563 -101 -295 -112 -689
-27 -945 63 -187 170 -363 288 -468 52 -47 163 -118 185 -118 6 0 18 -6 24
-12 9 -9 61 -14 168 -16 142 -4 161 -2 216 19 80 30 192 104 247 163 23 26 56
77 72 112 40 87 41 151 3 234 -27 60 -27 63 -9 76 16 12 21 12 34 0 29 -25 94
-53 186 -81 50 -15 110 -38 134 -52 40 -23 43 -27 27 -38 -9 -7 -37 -16 -61
-20 -51 -7 -68 -25 -176 -184 -92 -137 -180 -205 -368 -289 -147 -64 -404 -54
-597 25 -209 86 -407 291 -542 563 -82 164 -92 188 -132 315 -37 118 -71 185
-123 239 -45 48 -42 64 19 107 51 35 91 86 118 150 22 51 33 77 76 179 93 221
254 429 419 540 206 138 466 193 660 140z m-215 -976 c31 -78 56 -147 56 -154
0 -10 -40 -111 -85 -215 -14 -31 -42 -106 -52 -137 -7 -23 -23 -23 -23 0 0 10
-4 22 -9 28 -4 5 -34 74 -66 154 -32 80 -61 150 -66 155 -4 6 -2 24 6 40 7 17
23 57 35 90 25 65 39 100 63 155 8 19 23 53 32 75 l16 40 19 -45 c10 -25 44
-109 74 -186z"/>
<path d="M3386 1363 c-9 -10 -7 -91 3 -97 12 -8 21 18 21 59 0 33 -11 51 -24
38z"/>
</g>
</svg>
