<svg width="57" height="71" viewBox="0 0 57 71" fill="none" xmlns="http://www.w3.org/2000/svg">
<path d="M29.0254 0.806931C29.0254 0.822128 28.9899 0.989326 28.9544 1.1768C28.8834 1.50106 28.6653 3.6088 28.4168 6.38533C27.7018 14.264 26.1399 21.6461 24.507 24.8533C22.2808 29.2259 18.4216 32.3723 13.6396 33.7251C11.0127 34.4648 6.0329 35.2907 2.78232 35.5187C2.16871 35.5643 1.52975 35.62 1.3624 35.6453C1.19506 35.6757 1.03785 35.696 1.00742 35.696C0.982069 35.696 0.982069 35.7163 1.0125 35.7467C1.07842 35.8125 2.24478 35.9949 4.37972 36.2787C9.46098 36.9525 12.5797 37.5504 14.7096 38.2597C18.8628 39.6379 22.4684 42.8045 24.5323 46.8883C25.2677 48.3373 25.6226 49.3253 26.1095 51.2253C27.1693 55.3749 28.0314 60.7101 28.4929 66.02C28.7617 69.0955 28.9594 70.7624 29.0659 70.8688C29.1319 70.9347 29.1674 70.5395 29.1978 69.3133C29.3398 64.044 31.1299 53.1203 32.5194 49.0619C33.7466 45.4797 36.0945 42.3891 39.1676 40.3117C40.5165 39.3997 42.0277 38.6397 43.3107 38.2293C45.6789 37.4693 52.5554 36.2533 55.7552 36.0304C56.5362 35.9747 56.7948 35.9443 56.8557 35.8835C56.9216 35.8125 56.9013 35.7973 56.6579 35.7264C56.2978 35.6301 55.7857 35.5643 54.6092 35.468C51.7845 35.2299 47.3777 34.5003 44.8219 33.8467C42.7123 33.3045 41.0084 32.5547 39.2944 31.4147C38.2244 30.7003 37.6463 30.224 36.6828 29.2613C35.5823 28.1619 34.7963 27.1739 34.061 25.9427C33.6806 25.3093 33.1025 24.1592 32.8642 23.5613C32.3368 22.2389 31.2972 18.1907 30.8053 15.5307C30.5213 14.0157 29.8925 10.0029 29.786 9.04533C29.4665 6.15227 29.1369 2.03813 29.1268 0.872803C29.1268 0.827202 29.1065 0.786667 29.0761 0.786667C29.0507 0.786667 29.0254 0.796791 29.0254 0.806931ZM30.2881 30.224C30.8966 30.3963 31.1248 30.5381 32.2607 31.4603C32.5244 31.6731 32.8236 31.8909 32.9352 31.9467C33.2648 32.1189 33.6299 32.0581 33.9291 31.7795C34.1827 31.5515 34.208 31.0296 33.9697 30.9232C33.8277 30.8573 33.6908 30.9384 33.6908 31.0904C33.6908 31.2171 33.5539 31.3387 33.4119 31.3387C33.2395 31.3387 33.133 31.2069 33.133 30.9891C33.133 30.7864 33.3054 30.5027 33.3916 30.5584C33.422 30.5736 33.4727 30.5635 33.5082 30.5331C33.6604 30.4064 34.1725 30.7813 34.2943 31.1005C34.3652 31.2829 34.2993 31.5869 34.132 31.8403C33.9596 32.0987 33.6705 32.3267 33.0823 32.6763C32.8186 32.8333 32.565 32.9853 32.5244 33.0107C32.4839 33.0411 32.4027 33.0816 32.3469 33.1069C32.2912 33.1323 32.0427 33.3096 31.7993 33.5072C31.4899 33.7504 31.3175 33.8517 31.2516 33.8365C31.2009 33.8213 31.1552 33.8011 31.1552 33.7909C31.1552 33.7808 31.2719 33.5427 31.4139 33.264C31.8094 32.4989 31.8043 32.1493 31.4088 31.6173C31.0285 31.1056 30.2982 30.6648 29.7353 30.6091C28.0213 30.4368 26.718 31.44 26.0233 33.4616C25.5111 34.9563 25.4553 36.9525 25.8863 38.2496C26.2058 39.1971 26.7484 40.0888 27.3468 40.6208C27.6105 40.8589 28.1734 41.2187 28.285 41.2187C28.3154 41.2187 28.3763 41.2491 28.4067 41.2795C28.4523 41.3251 28.716 41.3504 29.2586 41.3605C29.9787 41.3808 30.0751 41.3707 30.354 41.2643C30.7597 41.1123 31.3276 40.7373 31.6066 40.4384C31.7232 40.3067 31.8905 40.0483 31.9717 39.8709C32.1745 39.4301 32.1796 39.1059 31.9869 38.6853C31.85 38.3813 31.85 38.3661 31.9413 38.3003C32.0224 38.2395 32.0477 38.2395 32.1137 38.3003C32.2607 38.4269 32.5904 38.5688 33.0569 38.7107C33.3105 38.7867 33.6147 38.9032 33.7364 38.9741C33.9393 39.0907 33.9545 39.1109 33.8733 39.1667C33.8277 39.2021 33.6857 39.2477 33.564 39.268C33.3054 39.3035 33.2192 39.3947 32.6715 40.2003C32.205 40.8944 31.7587 41.2389 30.8053 41.6645C30.0599 41.9888 28.7566 41.9381 27.7779 41.5379C26.718 41.1021 25.7139 40.0635 25.0293 38.6853C24.6135 37.8544 24.5628 37.7328 24.3599 37.0893C24.1723 36.4915 23.9999 36.152 23.7362 35.8784C23.508 35.6352 23.5232 35.5541 23.8325 35.3363C24.0912 35.1589 24.294 34.9005 24.4309 34.5763C24.5425 34.3179 24.5983 34.1861 24.8163 33.6693C25.2879 32.5496 26.1044 31.4957 26.9411 30.9333C27.9858 30.2341 29.3043 29.9555 30.2881 30.224ZM29.1978 35.1691C29.355 35.5643 29.4818 35.9139 29.4818 35.9493C29.4818 36 29.2789 36.5117 29.0507 37.0387C28.9797 37.1957 28.8377 37.5757 28.787 37.7328C28.7515 37.8493 28.6704 37.8493 28.6704 37.7328C28.6704 37.6821 28.6501 37.6213 28.6247 37.5909C28.6045 37.5656 28.4523 37.216 28.29 36.8107C28.1278 36.4053 27.9807 36.0507 27.9554 36.0253C27.9351 35.9949 27.9452 35.9037 27.9858 35.8227C28.0213 35.7365 28.1024 35.5339 28.1633 35.3667C28.29 35.0373 28.361 34.86 28.4827 34.5813C28.5233 34.4851 28.5994 34.3128 28.645 34.2013L28.7262 33.9987L28.8225 34.2267C28.8732 34.3533 29.0456 34.7789 29.1978 35.1691Z" fill="#555EC5"/>
<path d="M5.17081 67.0942C5.12517 67.1448 5.13531 67.5552 5.18602 67.5856C5.24688 67.6262 5.29252 67.4944 5.29252 67.2867C5.29252 67.1195 5.23673 67.0283 5.17081 67.0942Z" fill="#555EC5"/>
</svg>
